<?xml version="1.0" encoding="utf-8" standalone="no"?>
<!DOCTYPE svg PUBLIC "-//W3C//DTD SVG 1.1//EN"
  "http://www.w3.org/Graphics/SVG/1.1/DTD/svg11.dtd">
<!-- Created with matplotlib (http://matplotlib.org/) -->
<svg height="496pt" version="1.1" viewBox="0 0 626 496" width="626pt" xmlns="http://www.w3.org/2000/svg" xmlns:xlink="http://www.w3.org/1999/xlink">
 <defs>
  <style type="text/css">
*{stroke-linecap:butt;stroke-linejoin:round;stroke-miterlimit:100000;}
  </style>
 </defs>
 <g id="figure_1">
  <g id="patch_1">
   <path d="M 0 496.8 
L 626.4 496.8 
L 626.4 0 
L 0 0 
z
" style="fill:#ffffff;"/>
  </g>
  <g id="axes_1">
   <g id="patch_2">
    <path d="M 78.3 434.7 
L 563.76 434.7 
L 563.76 49.68 
L 78.3 49.68 
z
" style="fill:#ffffff;"/>
   </g>
   <g id="line2d_1">
    <path clip-path="url(#p24fe25ee66)" d="M 78.3 246.503507 
L 132.24 203.151539 
L 186.18 210.747556 
L 240.12 225.301739 
L 294.06 200.115442 
L 348 88.186706 
L 401.94 174.869253 
L 455.88 288.67432 
L 509.82 278.520487 
L 563.76 286.172546 
" style="fill:none;opacity:0.8;stroke:#ff0000;stroke-dasharray:6.000000,6.000000;stroke-dashoffset:0.0;stroke-width:3.0;"/>
    <defs>
     <path d="M 0 3 
C 0.795609 3 1.55874 2.683901 2.12132 2.12132 
C 2.683901 1.55874 3 0.795609 3 0 
C 3 -0.795609 2.683901 -1.55874 2.12132 -2.12132 
C 1.55874 -2.683901 0.795609 -3 0 -3 
C -0.795609 -3 -1.55874 -2.683901 -2.12132 -2.12132 
C -2.683901 -1.55874 -3 -0.795609 -3 0 
C -3 0.795609 -2.683901 1.55874 -2.12132 2.12132 
C -1.55874 2.683901 -0.795609 3 0 3 
z
" id="med69421b53" style="stroke:#ff0000;stroke-width:2.0;"/>
    </defs>
    <g clip-path="url(#p24fe25ee66)">
     <use style="fill:#ff0000;opacity:0.8;stroke:#ff0000;stroke-width:2.0;" x="78.3" xlink:href="#med69421b53" y="246.5035074"/>
     <use style="fill:#ff0000;opacity:0.8;stroke:#ff0000;stroke-width:2.0;" x="132.24" xlink:href="#med69421b53" y="203.1515388"/>
     <use style="fill:#ff0000;opacity:0.8;stroke:#ff0000;stroke-width:2.0;" x="186.18" xlink:href="#med69421b53" y="210.7475556"/>
     <use style="fill:#ff0000;opacity:0.8;stroke:#ff0000;stroke-width:2.0;" x="240.12" xlink:href="#med69421b53" y="225.3017394"/>
     <use style="fill:#ff0000;opacity:0.8;stroke:#ff0000;stroke-width:2.0;" x="294.06" xlink:href="#med69421b53" y="200.1154422"/>
     <use style="fill:#ff0000;opacity:0.8;stroke:#ff0000;stroke-width:2.0;" x="348.0" xlink:href="#med69421b53" y="88.1867058"/>
     <use style="fill:#ff0000;opacity:0.8;stroke:#ff0000;stroke-width:2.0;" x="401.94" xlink:href="#med69421b53" y="174.869253"/>
     <use style="fill:#ff0000;opacity:0.8;stroke:#ff0000;stroke-width:2.0;" x="455.88" xlink:href="#med69421b53" y="288.6743202"/>
     <use style="fill:#ff0000;opacity:0.8;stroke:#ff0000;stroke-width:2.0;" x="509.82" xlink:href="#med69421b53" y="278.5204872"/>
     <use style="fill:#ff0000;opacity:0.8;stroke:#ff0000;stroke-width:2.0;" x="563.76" xlink:href="#med69421b53" y="286.1725458"/>
    </g>
   </g>
   <g id="line2d_2">
    <path clip-path="url(#p24fe25ee66)" d="M 78.3 210.688519 
L 132.24 157.488595 
L 186.18 145.328807 
L 240.12 180.533753 
L 294.06 173.397193 
L 348 214.94684 
L 401.94 247.363385 
L 455.88 119.793853 
L 509.82 223.756526 
L 563.76 216.720071 
" style="fill:none;opacity:0.8;stroke:#008000;stroke-dasharray:6.000000,6.000000;stroke-dashoffset:0.0;stroke-width:3.0;"/>
    <defs>
     <path d="M 0 3 
C 0.795609 3 1.55874 2.683901 2.12132 2.12132 
C 2.683901 1.55874 3 0.795609 3 0 
C 3 -0.795609 2.683901 -1.55874 2.12132 -2.12132 
C 1.55874 -2.683901 0.795609 -3 0 -3 
C -0.795609 -3 -1.55874 -2.683901 -2.12132 -2.12132 
C -2.683901 -1.55874 -3 -0.795609 -3 0 
C -3 0.795609 -2.683901 1.55874 -2.12132 2.12132 
C -1.55874 2.683901 -0.795609 3 0 3 
z
" id="m119d064379" style="stroke:#008000;stroke-width:2.0;"/>
    </defs>
    <g clip-path="url(#p24fe25ee66)">
     <use style="fill:#008000;opacity:0.8;stroke:#008000;stroke-width:2.0;" x="78.3" xlink:href="#m119d064379" y="210.6885192"/>
     <use style="fill:#008000;opacity:0.8;stroke:#008000;stroke-width:2.0;" x="132.24" xlink:href="#m119d064379" y="157.4885946"/>
     <use style="fill:#008000;opacity:0.8;stroke:#008000;stroke-width:2.0;" x="186.18" xlink:href="#m119d064379" y="145.3288074"/>
     <use style="fill:#008000;opacity:0.8;stroke:#008000;stroke-width:2.0;" x="240.12" xlink:href="#m119d064379" y="180.5337528"/>
     <use style="fill:#008000;opacity:0.8;stroke:#008000;stroke-width:2.0;" x="294.06" xlink:href="#m119d064379" y="173.3971932"/>
     <use style="fill:#008000;opacity:0.8;stroke:#008000;stroke-width:2.0;" x="348.0" xlink:href="#m119d064379" y="214.9468404"/>
     <use style="fill:#008000;opacity:0.8;stroke:#008000;stroke-width:2.0;" x="401.94" xlink:href="#m119d064379" y="247.3633854"/>
     <use style="fill:#008000;opacity:0.8;stroke:#008000;stroke-width:2.0;" x="455.88" xlink:href="#m119d064379" y="119.7938532"/>
     <use style="fill:#008000;opacity:0.8;stroke:#008000;stroke-width:2.0;" x="509.82" xlink:href="#m119d064379" y="223.7565258"/>
     <use style="fill:#008000;opacity:0.8;stroke:#008000;stroke-width:2.0;" x="563.76" xlink:href="#m119d064379" y="216.7200714"/>
    </g>
   </g>
   <g id="line2d_3">
    <path clip-path="url(#p24fe25ee66)" d="M 78.3 326.182541 
L 132.24 378.488791 
L 186.18 359.716499 
L 240.12 344.224578 
L 294.06 311.483761 
L 348 345.819844 
L 401.94 412.137828 
L 455.88 365.042609 
L 509.82 355.091981 
L 563.76 367.927265 
" style="fill:none;opacity:0.8;stroke:#0000ff;stroke-dasharray:6.000000,6.000000;stroke-dashoffset:0.0;stroke-width:3.0;"/>
    <defs>
     <path d="M 0 3 
C 0.795609 3 1.55874 2.683901 2.12132 2.12132 
C 2.683901 1.55874 3 0.795609 3 0 
C 3 -0.795609 2.683901 -1.55874 2.12132 -2.12132 
C 1.55874 -2.683901 0.795609 -3 0 -3 
C -0.795609 -3 -1.55874 -2.683901 -2.12132 -2.12132 
C -2.683901 -1.55874 -3 -0.795609 -3 0 
C -3 0.795609 -2.683901 1.55874 -2.12132 2.12132 
C -1.55874 2.683901 -0.795609 3 0 3 
z
" id="mf15b444009" style="stroke:#0000ff;stroke-width:2.0;"/>
    </defs>
    <g clip-path="url(#p24fe25ee66)">
     <use style="fill:#0000ff;opacity:0.8;stroke:#0000ff;stroke-width:2.0;" x="78.3" xlink:href="#mf15b444009" y="326.1825408"/>
     <use style="fill:#0000ff;opacity:0.8;stroke:#0000ff;stroke-width:2.0;" x="132.24" xlink:href="#mf15b444009" y="378.4887912"/>
     <use style="fill:#0000ff;opacity:0.8;stroke:#0000ff;stroke-width:2.0;" x="186.18" xlink:href="#mf15b444009" y="359.7164994"/>
     <use style="fill:#0000ff;opacity:0.8;stroke:#0000ff;stroke-width:2.0;" x="240.12" xlink:href="#mf15b444009" y="344.224578"/>
     <use style="fill:#0000ff;opacity:0.8;stroke:#0000ff;stroke-width:2.0;" x="294.06" xlink:href="#mf15b444009" y="311.4837606"/>
     <use style="fill:#0000ff;opacity:0.8;stroke:#0000ff;stroke-width:2.0;" x="348.0" xlink:href="#mf15b444009" y="345.8198442"/>
     <use style="fill:#0000ff;opacity:0.8;stroke:#0000ff;stroke-width:2.0;" x="401.94" xlink:href="#mf15b444009" y="412.137828"/>
     <use style="fill:#0000ff;opacity:0.8;stroke:#0000ff;stroke-width:2.0;" x="455.88" xlink:href="#mf15b444009" y="365.0426094"/>
     <use style="fill:#0000ff;opacity:0.8;stroke:#0000ff;stroke-width:2.0;" x="509.82" xlink:href="#mf15b444009" y="355.0919814"/>
     <use style="fill:#0000ff;opacity:0.8;stroke:#0000ff;stroke-width:2.0;" x="563.76" xlink:href="#mf15b444009" y="367.9272648"/>
    </g>
   </g>
   <g id="patch_3">
    <path d="M 78.3 434.7 
L 563.76 434.7 
" style="fill:none;stroke:#000000;stroke-linecap:square;stroke-linejoin:miter;"/>
   </g>
   <g id="patch_4">
    <path d="M 78.3 434.7 
L 78.3 49.68 
" style="fill:none;stroke:#000000;stroke-linecap:square;stroke-linejoin:miter;"/>
   </g>
   <g id="patch_5">
    <path d="M 78.3 49.68 
L 563.76 49.68 
" style="fill:none;stroke:#000000;stroke-linecap:square;stroke-linejoin:miter;"/>
   </g>
   <g id="patch_6">
    <path d="M 563.76 434.7 
L 563.76 49.68 
" style="fill:none;stroke:#000000;stroke-linecap:square;stroke-linejoin:miter;"/>
   </g>
   <g id="matplotlib.axis_1">
    <g id="xtick_1">
     <g id="line2d_4">
      <defs>
       <path d="M 0 0 
L 0 -4 
" id="m9801911e05" style="stroke:#000000;stroke-width:0.5;"/>
      </defs>
      <g>
       <use style="stroke:#000000;stroke-width:0.5;" x="78.3" xlink:href="#m9801911e05" y="434.7"/>
      </g>
     </g>
     <g id="line2d_5">
      <defs>
       <path d="M 0 0 
L 0 4 
" id="mba64ac072b" style="stroke:#000000;stroke-width:0.5;"/>
      </defs>
      <g>
       <use style="stroke:#000000;stroke-width:0.5;" x="78.3" xlink:href="#mba64ac072b" y="49.68"/>
      </g>
     </g>
     <g id="text_1">
      <!-- 2008/12 -->
      <defs>
       <path d="M 21.875 56.25 
Q 16.796875 51.171875 8.984375 46.484375 
L 8.984375 53.90625 
Q 18.75 60.546875 25 69.53125 
L 29.6875 69.53125 
L 29.6875 2.34375 
L 21.875 2.34375 
z
" id="SimHei-31"/>
       <path d="M 4.6875 3.90625 
Q 5.078125 9.765625 10.15625 14.453125 
Q 15.234375 19.140625 23.046875 29.09375 
Q 30.859375 39.0625 33.203125 44.53125 
Q 35.546875 50 34.953125 53.90625 
Q 34.375 57.8125 31.25 60.34375 
Q 28.125 62.890625 24.015625 62.5 
Q 19.921875 62.109375 16.203125 59.375 
Q 12.5 56.640625 10.546875 51.171875 
L 3.125 52.34375 
Q 6.25 61.328125 11.125 65.421875 
Q 16.015625 69.53125 22.65625 69.921875 
Q 26.5625 70.3125 29.6875 69.71875 
Q 32.8125 69.140625 36.125 66.984375 
Q 39.453125 64.84375 41.59375 60.546875 
Q 43.75 56.25 43.15625 50.1875 
Q 42.578125 44.140625 37.109375 35.734375 
Q 31.640625 27.34375 16.015625 9.375 
L 44.140625 9.375 
L 44.140625 2.34375 
L 4.6875 2.34375 
z
" id="SimHei-32"/>
       <path d="M 46.875 71.09375 
L 5.46875 -2.734375 
L 1.5625 -0.390625 
L 42.96875 73.4375 
z
" id="SimHei-2f"/>
       <path d="M 2.734375 16.796875 
Q 2.734375 26.171875 5.078125 30.65625 
Q 7.421875 35.15625 12.890625 37.890625 
Q 8.203125 40.625 6.640625 43.9375 
Q 5.078125 47.265625 4.875 51.5625 
Q 4.6875 55.859375 6.046875 58.984375 
Q 7.421875 62.109375 10.15625 64.84375 
Q 12.890625 67.578125 16.203125 68.546875 
Q 19.53125 69.53125 23.4375 69.53125 
Q 27.34375 69.53125 30.46875 68.75 
Q 33.59375 67.96875 37.109375 65.421875 
Q 40.625 62.890625 42.1875 58.203125 
Q 43.75 53.515625 41.984375 47.265625 
Q 40.234375 41.015625 32.8125 37.5 
Q 39.453125 35.546875 42.1875 31.4375 
Q 44.921875 27.34375 44.921875 21.484375 
Q 44.921875 15.625 43.15625 12.109375 
Q 41.40625 8.59375 39.25 6.25 
Q 37.109375 3.90625 33.390625 2.53125 
Q 29.6875 1.171875 24.015625 1.171875 
Q 18.359375 1.171875 14.25 2.53125 
Q 10.15625 3.90625 7.421875 6.640625 
Q 4.6875 9.375 3.703125 13.078125 
Q 2.734375 16.796875 2.734375 26.171875 
M 10.9375 26.5625 
Q 10.546875 17.1875 12.296875 13.671875 
Q 14.0625 10.15625 18.75 9.171875 
Q 23.4375 8.203125 28.515625 9.375 
Q 33.59375 10.546875 35.546875 14.84375 
Q 37.5 19.140625 36.90625 23.4375 
Q 36.328125 27.734375 32.03125 30.65625 
Q 27.734375 33.59375 22.65625 33.203125 
Q 17.578125 32.8125 14.25 29.6875 
Q 10.9375 26.5625 10.546875 17.1875 
M 12.109375 56.25 
Q 12.109375 48.4375 14.84375 44.921875 
Q 17.578125 41.40625 23.4375 41.40625 
Q 29.296875 41.40625 32.21875 44.921875 
Q 35.15625 48.4375 34.953125 53.3125 
Q 34.765625 58.203125 31.4375 60.546875 
Q 28.125 62.890625 22.453125 62.5 
Q 16.796875 62.109375 14.453125 59.171875 
Q 12.109375 56.25 12.109375 48.4375 
" id="SimHei-38"/>
       <path d="M 3.125 29.296875 
Q 3.90625 50 6.4375 56.046875 
Q 8.984375 62.109375 13.671875 66.015625 
Q 18.359375 69.921875 25.1875 69.921875 
Q 32.03125 69.921875 37.109375 64.25 
Q 42.1875 58.59375 43.75 50 
Q 45.3125 41.40625 44.71875 30.265625 
Q 44.140625 19.140625 40.8125 12.109375 
Q 37.5 5.078125 30.859375 2.34375 
Q 24.21875 -0.390625 17.578125 2.921875 
Q 10.9375 6.25 8.203125 11.71875 
Q 5.46875 17.1875 4.296875 23.234375 
Q 3.125 29.296875 3.90625 50 
M 12.890625 52.734375 
Q 10.546875 31.25 12.5 22.84375 
Q 14.453125 14.453125 18.9375 10.9375 
Q 23.4375 7.421875 28.125 9.5625 
Q 32.8125 11.71875 34.953125 18.15625 
Q 37.109375 24.609375 37.109375 32.21875 
Q 37.109375 39.84375 36.515625 46.09375 
Q 35.9375 52.34375 33 57.421875 
Q 30.078125 62.5 25.1875 62.6875 
Q 20.3125 62.890625 16.59375 57.8125 
Q 12.890625 52.734375 10.546875 31.25 
" id="SimHei-30"/>
      </defs>
      <g transform="translate(55.075966184 466.346637676)rotate(-20.0)scale(0.15 -0.15)">
       <use xlink:href="#SimHei-32"/>
       <use x="50.0" xlink:href="#SimHei-30"/>
       <use x="100.0" xlink:href="#SimHei-30"/>
       <use x="150.0" xlink:href="#SimHei-38"/>
       <use x="200.0" xlink:href="#SimHei-2f"/>
       <use x="250.0" xlink:href="#SimHei-31"/>
       <use x="300.0" xlink:href="#SimHei-32"/>
      </g>
     </g>
    </g>
    <g id="xtick_2">
     <g id="line2d_6">
      <g>
       <use style="stroke:#000000;stroke-width:0.5;" x="132.24" xlink:href="#m9801911e05" y="434.7"/>
      </g>
     </g>
     <g id="line2d_7">
      <g>
       <use style="stroke:#000000;stroke-width:0.5;" x="132.24" xlink:href="#mba64ac072b" y="49.68"/>
      </g>
     </g>
     <g id="text_2">
      <!-- 2009/12 -->
      <defs>
       <path d="M 12.5 1.171875 
Q 21.09375 15.625 26.5625 27.34375 
Q 16.796875 25.78125 10.34375 29.875 
Q 3.90625 33.984375 2.53125 41.015625 
Q 1.171875 48.046875 2.734375 53.703125 
Q 4.296875 59.375 7.609375 63.078125 
Q 10.9375 66.796875 15.625 68.359375 
Q 20.3125 69.921875 24.015625 69.921875 
Q 27.734375 69.921875 31.640625 68.359375 
Q 35.546875 66.796875 38.671875 63.671875 
Q 41.796875 60.546875 42.96875 57.21875 
Q 44.140625 53.90625 44.140625 48.625 
Q 44.140625 43.359375 40.234375 35.15625 
Q 36.328125 26.953125 21.09375 1.171875 
z
M 9.765625 50 
Q 10.9375 39.84375 14.640625 36.515625 
Q 18.359375 33.203125 22.65625 33.59375 
Q 26.953125 33.984375 29.484375 35.9375 
Q 32.03125 37.890625 34.375 42.578125 
Q 35.9375 48.4375 35.15625 52.53125 
Q 34.375 56.640625 31.046875 59.375 
Q 27.734375 62.109375 23.828125 62.109375 
Q 21.484375 62.5 17.765625 60.9375 
Q 14.0625 59.375 11.90625 54.6875 
Q 9.765625 50 10.9375 39.84375 
" id="SimHei-39"/>
      </defs>
      <g transform="translate(109.015966184 466.346637676)rotate(-20.0)scale(0.15 -0.15)">
       <use xlink:href="#SimHei-32"/>
       <use x="50.0" xlink:href="#SimHei-30"/>
       <use x="100.0" xlink:href="#SimHei-30"/>
       <use x="150.0" xlink:href="#SimHei-39"/>
       <use x="200.0" xlink:href="#SimHei-2f"/>
       <use x="250.0" xlink:href="#SimHei-31"/>
       <use x="300.0" xlink:href="#SimHei-32"/>
      </g>
     </g>
    </g>
    <g id="xtick_3">
     <g id="line2d_8">
      <g>
       <use style="stroke:#000000;stroke-width:0.5;" x="186.18" xlink:href="#m9801911e05" y="434.7"/>
      </g>
     </g>
     <g id="line2d_9">
      <g>
       <use style="stroke:#000000;stroke-width:0.5;" x="186.18" xlink:href="#mba64ac072b" y="49.68"/>
      </g>
     </g>
     <g id="text_3">
      <!-- 2010/12 -->
      <g transform="translate(162.955966184 466.346637676)rotate(-20.0)scale(0.15 -0.15)">
       <use xlink:href="#SimHei-32"/>
       <use x="50.0" xlink:href="#SimHei-30"/>
       <use x="100.0" xlink:href="#SimHei-31"/>
       <use x="150.0" xlink:href="#SimHei-30"/>
       <use x="200.0" xlink:href="#SimHei-2f"/>
       <use x="250.0" xlink:href="#SimHei-31"/>
       <use x="300.0" xlink:href="#SimHei-32"/>
      </g>
     </g>
    </g>
    <g id="xtick_4">
     <g id="line2d_10">
      <g>
       <use style="stroke:#000000;stroke-width:0.5;" x="240.12" xlink:href="#m9801911e05" y="434.7"/>
      </g>
     </g>
     <g id="line2d_11">
      <g>
       <use style="stroke:#000000;stroke-width:0.5;" x="240.12" xlink:href="#mba64ac072b" y="49.68"/>
      </g>
     </g>
     <g id="text_4">
      <!-- 2011/12 -->
      <g transform="translate(216.895966184 466.346637676)rotate(-20.0)scale(0.15 -0.15)">
       <use xlink:href="#SimHei-32"/>
       <use x="50.0" xlink:href="#SimHei-30"/>
       <use x="100.0" xlink:href="#SimHei-31"/>
       <use x="150.0" xlink:href="#SimHei-31"/>
       <use x="200.0" xlink:href="#SimHei-2f"/>
       <use x="250.0" xlink:href="#SimHei-31"/>
       <use x="300.0" xlink:href="#SimHei-32"/>
      </g>
     </g>
    </g>
    <g id="xtick_5">
     <g id="line2d_12">
      <g>
       <use style="stroke:#000000;stroke-width:0.5;" x="294.06" xlink:href="#m9801911e05" y="434.7"/>
      </g>
     </g>
     <g id="line2d_13">
      <g>
       <use style="stroke:#000000;stroke-width:0.5;" x="294.06" xlink:href="#mba64ac072b" y="49.68"/>
      </g>
     </g>
     <g id="text_5">
      <!-- 2012/12 -->
      <g transform="translate(270.835966184 466.346637676)rotate(-20.0)scale(0.15 -0.15)">
       <use xlink:href="#SimHei-32"/>
       <use x="50.0" xlink:href="#SimHei-30"/>
       <use x="100.0" xlink:href="#SimHei-31"/>
       <use x="150.0" xlink:href="#SimHei-32"/>
       <use x="200.0" xlink:href="#SimHei-2f"/>
       <use x="250.0" xlink:href="#SimHei-31"/>
       <use x="300.0" xlink:href="#SimHei-32"/>
      </g>
     </g>
    </g>
    <g id="xtick_6">
     <g id="line2d_14">
      <g>
       <use style="stroke:#000000;stroke-width:0.5;" x="348.0" xlink:href="#m9801911e05" y="434.7"/>
      </g>
     </g>
     <g id="line2d_15">
      <g>
       <use style="stroke:#000000;stroke-width:0.5;" x="348.0" xlink:href="#mba64ac072b" y="49.68"/>
      </g>
     </g>
     <g id="text_6">
      <!-- 2013/12 -->
      <defs>
       <path d="M 3.90625 19.140625 
L 10.9375 20.3125 
Q 12.5 15.234375 16.015625 11.90625 
Q 19.53125 8.59375 24.796875 8.78125 
Q 30.078125 8.984375 33.203125 13.078125 
Q 36.328125 17.1875 35.9375 22.453125 
Q 35.546875 27.734375 31.828125 30.65625 
Q 28.125 33.59375 19.921875 34.765625 
L 19.921875 39.84375 
Q 28.125 40.625 31.828125 44.140625 
Q 35.546875 47.65625 35.15625 53.3125 
Q 34.765625 58.984375 30.078125 61.515625 
Q 25.390625 64.0625 20.109375 62.109375 
Q 14.84375 60.15625 11.71875 51.171875 
L 4.6875 52.34375 
Q 7.03125 59.375 11.125 64.0625 
Q 15.234375 68.75 22.265625 69.53125 
Q 29.296875 70.3125 34.5625 67.765625 
Q 39.84375 65.234375 41.984375 59.953125 
Q 44.140625 54.6875 42.578125 48.4375 
Q 41.015625 42.1875 33.59375 37.5 
Q 39.0625 35.15625 41.984375 30.46875 
Q 44.921875 25.78125 43.9375 18.15625 
Q 42.96875 10.546875 37.109375 5.859375 
Q 31.25 1.171875 23.828125 1.359375 
Q 16.40625 1.5625 10.9375 6.046875 
Q 5.46875 10.546875 3.90625 19.140625 
" id="SimHei-33"/>
      </defs>
      <g transform="translate(324.775966184 466.346637676)rotate(-20.0)scale(0.15 -0.15)">
       <use xlink:href="#SimHei-32"/>
       <use x="50.0" xlink:href="#SimHei-30"/>
       <use x="100.0" xlink:href="#SimHei-31"/>
       <use x="150.0" xlink:href="#SimHei-33"/>
       <use x="200.0" xlink:href="#SimHei-2f"/>
       <use x="250.0" xlink:href="#SimHei-31"/>
       <use x="300.0" xlink:href="#SimHei-32"/>
      </g>
     </g>
    </g>
    <g id="xtick_7">
     <g id="line2d_16">
      <g>
       <use style="stroke:#000000;stroke-width:0.5;" x="401.94" xlink:href="#m9801911e05" y="434.7"/>
      </g>
     </g>
     <g id="line2d_17">
      <g>
       <use style="stroke:#000000;stroke-width:0.5;" x="401.94" xlink:href="#mba64ac072b" y="49.68"/>
      </g>
     </g>
     <g id="text_7">
      <!-- 2014/12 -->
      <defs>
       <path d="M 31.25 17.1875 
L 1.171875 17.1875 
L 1.171875 23.828125 
L 32.8125 69.53125 
L 38.671875 69.53125 
L 38.671875 23.828125 
L 48.046875 23.828125 
L 48.046875 17.1875 
L 38.671875 17.1875 
L 38.671875 2.34375 
L 31.25 2.34375 
z
M 31.25 23.828125 
L 31.25 54.6875 
L 9.375 23.828125 
z
" id="SimHei-34"/>
      </defs>
      <g transform="translate(378.715966184 466.346637676)rotate(-20.0)scale(0.15 -0.15)">
       <use xlink:href="#SimHei-32"/>
       <use x="50.0" xlink:href="#SimHei-30"/>
       <use x="100.0" xlink:href="#SimHei-31"/>
       <use x="150.0" xlink:href="#SimHei-34"/>
       <use x="200.0" xlink:href="#SimHei-2f"/>
       <use x="250.0" xlink:href="#SimHei-31"/>
       <use x="300.0" xlink:href="#SimHei-32"/>
      </g>
     </g>
    </g>
    <g id="xtick_8">
     <g id="line2d_18">
      <g>
       <use style="stroke:#000000;stroke-width:0.5;" x="455.88" xlink:href="#m9801911e05" y="434.7"/>
      </g>
     </g>
     <g id="line2d_19">
      <g>
       <use style="stroke:#000000;stroke-width:0.5;" x="455.88" xlink:href="#mba64ac072b" y="49.68"/>
      </g>
     </g>
     <g id="text_8">
      <!-- 2015/12 -->
      <defs>
       <path d="M 8.59375 20.703125 
Q 11.328125 10.15625 17.96875 8.984375 
Q 24.609375 7.8125 28.703125 10.34375 
Q 32.8125 12.890625 34.5625 16.984375 
Q 36.328125 21.09375 36.125 26.171875 
Q 35.9375 31.25 33.390625 34.765625 
Q 30.859375 38.28125 26.953125 39.453125 
Q 23.046875 40.625 18.15625 39.453125 
Q 13.28125 38.28125 10.15625 33.984375 
L 3.515625 34.765625 
Q 4.296875 37.109375 10.9375 68.359375 
L 41.796875 68.359375 
L 41.796875 61.328125 
L 16.796875 61.328125 
Q 14.84375 50.78125 12.890625 44.53125 
Q 18.75 47.265625 23.828125 47.0625 
Q 28.90625 46.875 33.59375 44.71875 
Q 38.28125 42.578125 40.421875 38.859375 
Q 42.578125 35.15625 43.546875 31.4375 
Q 44.53125 27.734375 44.328125 23.4375 
Q 44.140625 19.140625 42.578125 14.640625 
Q 41.015625 10.15625 37.890625 7.21875 
Q 34.765625 4.296875 30.265625 2.53125 
Q 25.78125 0.78125 19.921875 1.171875 
Q 14.0625 1.5625 8.78125 5.46875 
Q 3.515625 9.375 1.5625 18.75 
z
" id="SimHei-35"/>
      </defs>
      <g transform="translate(432.655966184 466.346637676)rotate(-20.0)scale(0.15 -0.15)">
       <use xlink:href="#SimHei-32"/>
       <use x="50.0" xlink:href="#SimHei-30"/>
       <use x="100.0" xlink:href="#SimHei-31"/>
       <use x="150.0" xlink:href="#SimHei-35"/>
       <use x="200.0" xlink:href="#SimHei-2f"/>
       <use x="250.0" xlink:href="#SimHei-31"/>
       <use x="300.0" xlink:href="#SimHei-32"/>
      </g>
     </g>
    </g>
    <g id="xtick_9">
     <g id="line2d_20">
      <g>
       <use style="stroke:#000000;stroke-width:0.5;" x="509.82" xlink:href="#m9801911e05" y="434.7"/>
      </g>
     </g>
     <g id="line2d_21">
      <g>
       <use style="stroke:#000000;stroke-width:0.5;" x="509.82" xlink:href="#mba64ac072b" y="49.68"/>
      </g>
     </g>
     <g id="text_9">
      <!-- 2016/12 -->
      <defs>
       <path d="M 3.515625 19.53125 
Q 4.296875 30.859375 6.046875 34.765625 
Q 7.8125 38.671875 11.328125 44.53125 
L 27.34375 69.53125 
L 36.328125 69.53125 
L 19.921875 43.75 
Q 30.46875 46.484375 36.71875 42.96875 
Q 42.96875 39.453125 45.109375 34.953125 
Q 47.265625 30.46875 47.453125 25.1875 
Q 47.65625 19.921875 45.890625 14.84375 
Q 44.140625 9.765625 39.640625 5.65625 
Q 35.15625 1.5625 27.140625 1.171875 
Q 19.140625 0.78125 13.46875 4.09375 
Q 7.8125 7.421875 5.65625 13.46875 
Q 3.515625 19.53125 4.296875 30.859375 
M 12.5 16.015625 
Q 19.53125 8.59375 25.390625 8.203125 
Q 31.25 7.8125 35.15625 12.109375 
Q 39.0625 16.40625 39.0625 24.609375 
Q 39.0625 32.8125 34.171875 35.9375 
Q 29.296875 39.0625 23.234375 38.28125 
Q 17.1875 37.5 14.453125 32.421875 
Q 11.71875 27.34375 12.109375 21.671875 
Q 12.5 16.015625 19.53125 8.59375 
" id="SimHei-36"/>
      </defs>
      <g transform="translate(486.595966184 466.346637676)rotate(-20.0)scale(0.15 -0.15)">
       <use xlink:href="#SimHei-32"/>
       <use x="50.0" xlink:href="#SimHei-30"/>
       <use x="100.0" xlink:href="#SimHei-31"/>
       <use x="150.0" xlink:href="#SimHei-36"/>
       <use x="200.0" xlink:href="#SimHei-2f"/>
       <use x="250.0" xlink:href="#SimHei-31"/>
       <use x="300.0" xlink:href="#SimHei-32"/>
      </g>
     </g>
    </g>
    <g id="xtick_10">
     <g id="line2d_22">
      <g>
       <use style="stroke:#000000;stroke-width:0.5;" x="563.76" xlink:href="#m9801911e05" y="434.7"/>
      </g>
     </g>
     <g id="line2d_23">
      <g>
       <use style="stroke:#000000;stroke-width:0.5;" x="563.76" xlink:href="#mba64ac072b" y="49.68"/>
      </g>
     </g>
     <g id="text_10">
      <!-- 2017/12 -->
      <defs>
       <path d="M 13.28125 2.34375 
Q 20.3125 32.03125 37.890625 61.328125 
L 4.296875 61.328125 
L 4.296875 68.359375 
L 46.09375 68.359375 
L 46.09375 61.71875 
Q 27.734375 32.03125 21.875 2.34375 
L 13.28125 2.34375 
z
" id="SimHei-37"/>
      </defs>
      <g transform="translate(540.535966184 466.346637676)rotate(-20.0)scale(0.15 -0.15)">
       <use xlink:href="#SimHei-32"/>
       <use x="50.0" xlink:href="#SimHei-30"/>
       <use x="100.0" xlink:href="#SimHei-31"/>
       <use x="150.0" xlink:href="#SimHei-37"/>
       <use x="200.0" xlink:href="#SimHei-2f"/>
       <use x="250.0" xlink:href="#SimHei-31"/>
       <use x="300.0" xlink:href="#SimHei-32"/>
      </g>
     </g>
    </g>
   </g>
   <g id="matplotlib.axis_2">
    <g id="ytick_1">
     <g id="line2d_24">
      <path clip-path="url(#p24fe25ee66)" d="M 78.3 434.7 
L 563.76 434.7 
" style="fill:none;stroke:#000000;stroke-dasharray:3.000000,5.000000,1.000000,5.000000;stroke-dashoffset:0.0;stroke-width:0.5;"/>
     </g>
     <g id="line2d_25">
      <defs>
       <path d="M 0 0 
L 4 0 
" id="mc2dcf916c1" style="stroke:#000000;stroke-width:0.5;"/>
      </defs>
      <g>
       <use style="stroke:#000000;stroke-width:0.5;" x="78.3" xlink:href="#mc2dcf916c1" y="434.7"/>
      </g>
     </g>
     <g id="line2d_26">
      <defs>
       <path d="M 0 0 
L -4 0 
" id="m505a9dbeff" style="stroke:#000000;stroke-width:0.5;"/>
      </defs>
      <g>
       <use style="stroke:#000000;stroke-width:0.5;" x="563.76" xlink:href="#m505a9dbeff" y="434.7"/>
      </g>
     </g>
     <g id="text_11">
      <!-- -400000 -->
      <defs>
       <path d="M 46.484375 33.203125 
L 1.953125 33.203125 
L 1.953125 39.453125 
L 46.484375 39.453125 
z
" id="SimHei-2d"/>
      </defs>
      <g transform="translate(39.3 437.5125)scale(0.1 -0.1)">
       <use xlink:href="#SimHei-2d"/>
       <use x="50.0" xlink:href="#SimHei-34"/>
       <use x="100.0" xlink:href="#SimHei-30"/>
       <use x="150.0" xlink:href="#SimHei-30"/>
       <use x="200.0" xlink:href="#SimHei-30"/>
       <use x="250.0" xlink:href="#SimHei-30"/>
       <use x="300.0" xlink:href="#SimHei-30"/>
      </g>
     </g>
    </g>
    <g id="ytick_2">
     <g id="line2d_27">
      <path clip-path="url(#p24fe25ee66)" d="M 78.3 391.92 
L 563.76 391.92 
" style="fill:none;stroke:#000000;stroke-dasharray:3.000000,5.000000,1.000000,5.000000;stroke-dashoffset:0.0;stroke-width:0.5;"/>
     </g>
     <g id="line2d_28">
      <g>
       <use style="stroke:#000000;stroke-width:0.5;" x="78.3" xlink:href="#mc2dcf916c1" y="391.92"/>
      </g>
     </g>
     <g id="line2d_29">
      <g>
       <use style="stroke:#000000;stroke-width:0.5;" x="563.76" xlink:href="#m505a9dbeff" y="391.92"/>
      </g>
     </g>
     <g id="text_12">
      <!-- -300000 -->
      <g transform="translate(39.3 394.7325)scale(0.1 -0.1)">
       <use xlink:href="#SimHei-2d"/>
       <use x="50.0" xlink:href="#SimHei-33"/>
       <use x="100.0" xlink:href="#SimHei-30"/>
       <use x="150.0" xlink:href="#SimHei-30"/>
       <use x="200.0" xlink:href="#SimHei-30"/>
       <use x="250.0" xlink:href="#SimHei-30"/>
       <use x="300.0" xlink:href="#SimHei-30"/>
      </g>
     </g>
    </g>
    <g id="ytick_3">
     <g id="line2d_30">
      <path clip-path="url(#p24fe25ee66)" d="M 78.3 349.14 
L 563.76 349.14 
" style="fill:none;stroke:#000000;stroke-dasharray:3.000000,5.000000,1.000000,5.000000;stroke-dashoffset:0.0;stroke-width:0.5;"/>
     </g>
     <g id="line2d_31">
      <g>
       <use style="stroke:#000000;stroke-width:0.5;" x="78.3" xlink:href="#mc2dcf916c1" y="349.14"/>
      </g>
     </g>
     <g id="line2d_32">
      <g>
       <use style="stroke:#000000;stroke-width:0.5;" x="563.76" xlink:href="#m505a9dbeff" y="349.14"/>
      </g>
     </g>
     <g id="text_13">
      <!-- -200000 -->
      <g transform="translate(39.3 351.9525)scale(0.1 -0.1)">
       <use xlink:href="#SimHei-2d"/>
       <use x="50.0" xlink:href="#SimHei-32"/>
       <use x="100.0" xlink:href="#SimHei-30"/>
       <use x="150.0" xlink:href="#SimHei-30"/>
       <use x="200.0" xlink:href="#SimHei-30"/>
       <use x="250.0" xlink:href="#SimHei-30"/>
       <use x="300.0" xlink:href="#SimHei-30"/>
      </g>
     </g>
    </g>
    <g id="ytick_4">
     <g id="line2d_33">
      <path clip-path="url(#p24fe25ee66)" d="M 78.3 306.36 
L 563.76 306.36 
" style="fill:none;stroke:#000000;stroke-dasharray:3.000000,5.000000,1.000000,5.000000;stroke-dashoffset:0.0;stroke-width:0.5;"/>
     </g>
     <g id="line2d_34">
      <g>
       <use style="stroke:#000000;stroke-width:0.5;" x="78.3" xlink:href="#mc2dcf916c1" y="306.36"/>
      </g>
     </g>
     <g id="line2d_35">
      <g>
       <use style="stroke:#000000;stroke-width:0.5;" x="563.76" xlink:href="#m505a9dbeff" y="306.36"/>
      </g>
     </g>
     <g id="text_14">
      <!-- -100000 -->
      <g transform="translate(39.3 309.1725)scale(0.1 -0.1)">
       <use xlink:href="#SimHei-2d"/>
       <use x="50.0" xlink:href="#SimHei-31"/>
       <use x="100.0" xlink:href="#SimHei-30"/>
       <use x="150.0" xlink:href="#SimHei-30"/>
       <use x="200.0" xlink:href="#SimHei-30"/>
       <use x="250.0" xlink:href="#SimHei-30"/>
       <use x="300.0" xlink:href="#SimHei-30"/>
      </g>
     </g>
    </g>
    <g id="ytick_5">
     <g id="line2d_36">
      <path clip-path="url(#p24fe25ee66)" d="M 78.3 263.58 
L 563.76 263.58 
" style="fill:none;stroke:#000000;stroke-dasharray:3.000000,5.000000,1.000000,5.000000;stroke-dashoffset:0.0;stroke-width:0.5;"/>
     </g>
     <g id="line2d_37">
      <g>
       <use style="stroke:#000000;stroke-width:0.5;" x="78.3" xlink:href="#mc2dcf916c1" y="263.58"/>
      </g>
     </g>
     <g id="line2d_38">
      <g>
       <use style="stroke:#000000;stroke-width:0.5;" x="563.76" xlink:href="#m505a9dbeff" y="263.58"/>
      </g>
     </g>
     <g id="text_15">
      <!-- 0 -->
      <g transform="translate(69.3 266.3925)scale(0.1 -0.1)">
       <use xlink:href="#SimHei-30"/>
      </g>
     </g>
    </g>
    <g id="ytick_6">
     <g id="line2d_39">
      <path clip-path="url(#p24fe25ee66)" d="M 78.3 220.8 
L 563.76 220.8 
" style="fill:none;stroke:#000000;stroke-dasharray:3.000000,5.000000,1.000000,5.000000;stroke-dashoffset:0.0;stroke-width:0.5;"/>
     </g>
     <g id="line2d_40">
      <g>
       <use style="stroke:#000000;stroke-width:0.5;" x="78.3" xlink:href="#mc2dcf916c1" y="220.8"/>
      </g>
     </g>
     <g id="line2d_41">
      <g>
       <use style="stroke:#000000;stroke-width:0.5;" x="563.76" xlink:href="#m505a9dbeff" y="220.8"/>
      </g>
     </g>
     <g id="text_16">
      <!-- 100000 -->
      <g transform="translate(44.3 223.6125)scale(0.1 -0.1)">
       <use xlink:href="#SimHei-31"/>
       <use x="50.0" xlink:href="#SimHei-30"/>
       <use x="100.0" xlink:href="#SimHei-30"/>
       <use x="150.0" xlink:href="#SimHei-30"/>
       <use x="200.0" xlink:href="#SimHei-30"/>
       <use x="250.0" xlink:href="#SimHei-30"/>
      </g>
     </g>
    </g>
    <g id="ytick_7">
     <g id="line2d_42">
      <path clip-path="url(#p24fe25ee66)" d="M 78.3 178.02 
L 563.76 178.02 
" style="fill:none;stroke:#000000;stroke-dasharray:3.000000,5.000000,1.000000,5.000000;stroke-dashoffset:0.0;stroke-width:0.5;"/>
     </g>
     <g id="line2d_43">
      <g>
       <use style="stroke:#000000;stroke-width:0.5;" x="78.3" xlink:href="#mc2dcf916c1" y="178.02"/>
      </g>
     </g>
     <g id="line2d_44">
      <g>
       <use style="stroke:#000000;stroke-width:0.5;" x="563.76" xlink:href="#m505a9dbeff" y="178.02"/>
      </g>
     </g>
     <g id="text_17">
      <!-- 200000 -->
      <g transform="translate(44.3 180.8325)scale(0.1 -0.1)">
       <use xlink:href="#SimHei-32"/>
       <use x="50.0" xlink:href="#SimHei-30"/>
       <use x="100.0" xlink:href="#SimHei-30"/>
       <use x="150.0" xlink:href="#SimHei-30"/>
       <use x="200.0" xlink:href="#SimHei-30"/>
       <use x="250.0" xlink:href="#SimHei-30"/>
      </g>
     </g>
    </g>
    <g id="ytick_8">
     <g id="line2d_45">
      <path clip-path="url(#p24fe25ee66)" d="M 78.3 135.24 
L 563.76 135.24 
" style="fill:none;stroke:#000000;stroke-dasharray:3.000000,5.000000,1.000000,5.000000;stroke-dashoffset:0.0;stroke-width:0.5;"/>
     </g>
     <g id="line2d_46">
      <g>
       <use style="stroke:#000000;stroke-width:0.5;" x="78.3" xlink:href="#mc2dcf916c1" y="135.24"/>
      </g>
     </g>
     <g id="line2d_47">
      <g>
       <use style="stroke:#000000;stroke-width:0.5;" x="563.76" xlink:href="#m505a9dbeff" y="135.24"/>
      </g>
     </g>
     <g id="text_18">
      <!-- 300000 -->
      <g transform="translate(44.3 138.0525)scale(0.1 -0.1)">
       <use xlink:href="#SimHei-33"/>
       <use x="50.0" xlink:href="#SimHei-30"/>
       <use x="100.0" xlink:href="#SimHei-30"/>
       <use x="150.0" xlink:href="#SimHei-30"/>
       <use x="200.0" xlink:href="#SimHei-30"/>
       <use x="250.0" xlink:href="#SimHei-30"/>
      </g>
     </g>
    </g>
    <g id="ytick_9">
     <g id="line2d_48">
      <path clip-path="url(#p24fe25ee66)" d="M 78.3 92.46 
L 563.76 92.46 
" style="fill:none;stroke:#000000;stroke-dasharray:3.000000,5.000000,1.000000,5.000000;stroke-dashoffset:0.0;stroke-width:0.5;"/>
     </g>
     <g id="line2d_49">
      <g>
       <use style="stroke:#000000;stroke-width:0.5;" x="78.3" xlink:href="#mc2dcf916c1" y="92.46"/>
      </g>
     </g>
     <g id="line2d_50">
      <g>
       <use style="stroke:#000000;stroke-width:0.5;" x="563.76" xlink:href="#m505a9dbeff" y="92.46"/>
      </g>
     </g>
     <g id="text_19">
      <!-- 400000 -->
      <g transform="translate(44.3 95.2725)scale(0.1 -0.1)">
       <use xlink:href="#SimHei-34"/>
       <use x="50.0" xlink:href="#SimHei-30"/>
       <use x="100.0" xlink:href="#SimHei-30"/>
       <use x="150.0" xlink:href="#SimHei-30"/>
       <use x="200.0" xlink:href="#SimHei-30"/>
       <use x="250.0" xlink:href="#SimHei-30"/>
      </g>
     </g>
    </g>
    <g id="ytick_10">
     <g id="line2d_51">
      <path clip-path="url(#p24fe25ee66)" d="M 78.3 49.68 
L 563.76 49.68 
" style="fill:none;stroke:#000000;stroke-dasharray:3.000000,5.000000,1.000000,5.000000;stroke-dashoffset:0.0;stroke-width:0.5;"/>
     </g>
     <g id="line2d_52">
      <g>
       <use style="stroke:#000000;stroke-width:0.5;" x="78.3" xlink:href="#mc2dcf916c1" y="49.68"/>
      </g>
     </g>
     <g id="line2d_53">
      <g>
       <use style="stroke:#000000;stroke-width:0.5;" x="563.76" xlink:href="#m505a9dbeff" y="49.68"/>
      </g>
     </g>
     <g id="text_20">
      <!-- 500000 -->
      <g transform="translate(44.3 52.4925)scale(0.1 -0.1)">
       <use xlink:href="#SimHei-35"/>
       <use x="50.0" xlink:href="#SimHei-30"/>
       <use x="100.0" xlink:href="#SimHei-30"/>
       <use x="150.0" xlink:href="#SimHei-30"/>
       <use x="200.0" xlink:href="#SimHei-30"/>
       <use x="250.0" xlink:href="#SimHei-30"/>
      </g>
     </g>
    </g>
    <g id="text_21">
     <!-- $Income$ $before$ $income$ $tax$ -->
     <defs>
      <path d="M 4.203125 0 
Q 3.21875 0 3.21875 1.3125 
Q 3.609375 3.515625 4.5 3.515625 
Q 10.40625 3.515625 12.5 3.90625 
Q 14.796875 4.4375 15.375 6.890625 
L 29.109375 61.8125 
Q 29.296875 62.796875 29.296875 63.09375 
Q 29.296875 63.71875 28.96875 63.984375 
Q 28.65625 64.265625 27.984375 64.40625 
Q 25.984375 64.796875 20.40625 64.796875 
Q 19.390625 64.796875 19.390625 66.109375 
Q 19.734375 67.390625 19.921875 67.84375 
Q 20.125 68.3125 21.09375 68.3125 
L 49.03125 68.3125 
Q 50 68.3125 50 67 
Q 49.953125 66.75 49.796875 66.15625 
Q 49.65625 65.578125 49.40625 65.1875 
Q 49.171875 64.796875 48.6875 64.796875 
Q 42.828125 64.796875 40.578125 64.40625 
Q 38.375 63.875 37.796875 61.375 
L 24.125 6.5 
Q 23.875 5.28125 23.875 5.171875 
Q 23.875 4.9375 23.953125 4.71875 
Q 24.03125 4.5 24.25 4.328125 
Q 24.46875 4.15625 24.6875 4.078125 
Q 24.90625 4 25.203125 3.90625 
Q 27.09375 3.515625 32.8125 3.515625 
Q 33.796875 3.515625 33.796875 2.203125 
Q 33.453125 0.78125 33.25 0.390625 
Q 33.0625 0 32.078125 0 
z
" id="Cmmi10-49"/>
      <path d="M 20.125 -1.125 
Q 15.375 -1.125 11.6875 1.125 
Q 8.015625 3.375 6 7.171875 
Q 4 10.984375 4 15.828125 
Q 4 22.609375 7.78125 29.25 
Q 11.578125 35.890625 17.84375 40.03125 
Q 24.125 44.1875 31 44.1875 
Q 34.71875 44.1875 37.625 42.921875 
Q 40.53125 41.65625 42.671875 39.359375 
Q 44.828125 37.0625 45.96875 33.984375 
Q 47.125 30.90625 47.125 27.296875 
Q 47.125 22.078125 44.921875 17.015625 
Q 42.71875 11.96875 38.890625 7.84375 
Q 35.0625 3.71875 30.125 1.296875 
Q 25.203125 -1.125 20.125 -1.125 
M 20.3125 1.515625 
Q 24.75 1.515625 28.4375 4.53125 
Q 32.125 7.5625 34.484375 12.171875 
Q 36.859375 16.796875 38.125 21.921875 
Q 39.40625 27.046875 39.40625 31.203125 
Q 39.40625 35.546875 37.234375 38.578125 
Q 35.0625 41.609375 30.8125 41.609375 
Q 24.953125 41.609375 20.546875 36.59375 
Q 16.15625 31.59375 13.9375 24.625 
Q 11.71875 17.671875 11.71875 11.921875 
Q 11.71875 7.5625 13.9375 4.53125 
Q 16.15625 1.515625 20.3125 1.515625 
" id="Cmmi10-6f"/>
      <path d="M 7.8125 2.875 
Q 9.578125 1.515625 12.796875 1.515625 
Q 15.921875 1.515625 18.3125 4.515625 
Q 20.703125 7.515625 21.578125 11.078125 
L 26.125 28.8125 
Q 27.203125 33.640625 27.203125 35.40625 
Q 27.203125 37.890625 25.8125 39.75 
Q 24.421875 41.609375 21.921875 41.609375 
Q 18.75 41.609375 15.96875 39.625 
Q 13.1875 37.640625 11.28125 34.59375 
Q 9.375 31.546875 8.59375 28.421875 
Q 8.40625 27.78125 7.8125 27.78125 
L 6.59375 27.78125 
Q 5.8125 27.78125 5.8125 28.71875 
L 5.8125 29 
Q 6.78125 32.71875 9.125 36.25 
Q 11.46875 39.796875 14.859375 41.984375 
Q 18.265625 44.1875 22.125 44.1875 
Q 25.78125 44.1875 28.734375 42.234375 
Q 31.6875 40.28125 32.90625 36.921875 
Q 34.625 39.984375 37.28125 42.078125 
Q 39.9375 44.1875 43.109375 44.1875 
Q 45.265625 44.1875 47.5 43.421875 
Q 49.75 42.671875 51.171875 41.109375 
Q 52.59375 39.546875 52.59375 37.203125 
Q 52.59375 34.671875 50.953125 32.828125 
Q 49.3125 31 46.78125 31 
Q 45.171875 31 44.09375 32.03125 
Q 43.015625 33.0625 43.015625 34.625 
Q 43.015625 36.71875 44.453125 38.296875 
Q 45.90625 39.890625 47.90625 40.1875 
Q 46.09375 41.609375 42.921875 41.609375 
Q 39.703125 41.609375 37.328125 38.625 
Q 34.96875 35.640625 33.984375 31.984375 
L 29.59375 14.3125 
Q 28.515625 10.296875 28.515625 7.71875 
Q 28.515625 5.171875 29.953125 3.34375 
Q 31.390625 1.515625 33.796875 1.515625 
Q 38.484375 1.515625 42.15625 5.640625 
Q 45.84375 9.765625 47.015625 14.703125 
Q 47.21875 15.28125 47.796875 15.28125 
L 49.03125 15.28125 
Q 49.421875 15.28125 49.65625 15.015625 
Q 49.90625 14.75 49.90625 14.40625 
Q 49.90625 14.3125 49.8125 14.109375 
Q 48.390625 8.15625 43.84375 3.515625 
Q 39.3125 -1.125 33.59375 -1.125 
Q 29.9375 -1.125 26.984375 0.84375 
Q 24.03125 2.828125 22.796875 6.203125 
Q 21.234375 3.265625 18.46875 1.0625 
Q 15.71875 -1.125 12.59375 -1.125 
Q 10.453125 -1.125 8.171875 -0.359375 
Q 5.90625 0.390625 4.484375 1.953125 
Q 3.078125 3.515625 3.078125 5.90625 
Q 3.078125 8.25 4.703125 10.171875 
Q 6.34375 12.109375 8.796875 12.109375 
Q 10.453125 12.109375 11.578125 11.109375 
Q 12.703125 10.109375 12.703125 8.5 
Q 12.703125 6.390625 11.296875 4.828125 
Q 9.90625 3.265625 7.8125 2.875 
" id="Cmmi10-78"/>
      <path d="M 17.390625 -1.125 
Q 11.078125 -1.125 7.4375 3.640625 
Q 3.8125 8.40625 3.8125 14.890625 
Q 3.8125 21.296875 7.125 28.171875 
Q 10.453125 35.0625 16.09375 39.625 
Q 21.734375 44.1875 28.21875 44.1875 
Q 31.203125 44.1875 33.546875 42.578125 
Q 35.890625 40.96875 37.203125 38.1875 
Q 38.328125 42.1875 41.609375 42.1875 
Q 42.875 42.1875 43.71875 41.421875 
Q 44.578125 40.671875 44.578125 39.40625 
Q 44.578125 39.109375 44.546875 38.953125 
Q 44.53125 38.8125 44.484375 38.625 
L 37.5 10.6875 
Q 36.8125 7.71875 36.8125 5.8125 
Q 36.8125 1.515625 39.703125 1.515625 
Q 42.828125 1.515625 44.453125 5.484375 
Q 46.09375 9.46875 47.21875 14.703125 
Q 47.40625 15.28125 48 15.28125 
L 49.21875 15.28125 
Q 49.609375 15.28125 49.84375 14.9375 
Q 50.09375 14.59375 50.09375 14.3125 
Q 48.34375 7.328125 46.265625 3.09375 
Q 44.1875 -1.125 39.5 -1.125 
Q 36.140625 -1.125 33.546875 0.84375 
Q 30.953125 2.828125 30.328125 6.109375 
Q 23.875 -1.125 17.390625 -1.125 
M 17.484375 1.515625 
Q 21.09375 1.515625 24.484375 4.21875 
Q 27.875 6.9375 30.328125 10.59375 
Q 30.421875 10.6875 30.421875 10.890625 
L 35.796875 32.625 
L 35.890625 32.90625 
Q 35.296875 36.46875 33.3125 39.03125 
Q 31.34375 41.609375 27.984375 41.609375 
Q 24.609375 41.609375 21.703125 38.84375 
Q 18.796875 36.078125 16.796875 32.328125 
Q 14.84375 28.328125 13.0625 21.34375 
Q 11.28125 14.359375 11.28125 10.5 
Q 11.28125 7.03125 12.765625 4.265625 
Q 14.265625 1.515625 17.484375 1.515625 
" id="Cmmi10-61"/>
      <path d="M 7.71875 1.703125 
Q 7.71875 2.296875 7.8125 2.59375 
L 15.28125 32.421875 
Q 16.015625 35.203125 16.015625 37.3125 
Q 16.015625 41.609375 13.09375 41.609375 
Q 9.96875 41.609375 8.453125 37.859375 
Q 6.9375 34.125 5.515625 28.421875 
Q 5.515625 28.125 5.21875 27.953125 
Q 4.9375 27.78125 4.6875 27.78125 
L 3.515625 27.78125 
Q 3.171875 27.78125 2.921875 28.140625 
Q 2.6875 28.515625 2.6875 28.8125 
Q 3.765625 33.15625 4.765625 36.171875 
Q 5.765625 39.203125 7.890625 41.6875 
Q 10.015625 44.1875 13.1875 44.1875 
Q 16.9375 44.1875 19.8125 41.8125 
Q 22.703125 39.453125 22.703125 35.796875 
Q 25.6875 39.703125 29.6875 41.9375 
Q 33.6875 44.1875 38.1875 44.1875 
Q 41.75 44.1875 44.328125 42.96875 
Q 46.921875 41.75 48.359375 39.28125 
Q 49.8125 36.8125 49.8125 33.40625 
Q 49.8125 29.296875 47.96875 23.484375 
Q 46.140625 17.671875 43.40625 10.5 
Q 42 7.234375 42 4.5 
Q 42 1.515625 44.28125 1.515625 
Q 48.1875 1.515625 50.796875 5.703125 
Q 53.421875 9.90625 54.5 14.703125 
Q 54.6875 15.28125 55.328125 15.28125 
L 56.5 15.28125 
Q 56.890625 15.28125 57.15625 15.03125 
Q 57.421875 14.796875 57.421875 14.40625 
Q 57.421875 14.3125 57.328125 14.109375 
Q 55.953125 8.453125 52.5625 3.65625 
Q 49.171875 -1.125 44.09375 -1.125 
Q 40.578125 -1.125 38.078125 1.296875 
Q 35.59375 3.71875 35.59375 7.171875 
Q 35.59375 9.03125 36.375 11.078125 
Q 37.640625 14.359375 39.28125 18.890625 
Q 40.921875 23.4375 41.96875 27.578125 
Q 43.015625 31.734375 43.015625 34.90625 
Q 43.015625 37.703125 41.859375 39.65625 
Q 40.71875 41.609375 37.984375 41.609375 
Q 34.328125 41.609375 31.25 39.984375 
Q 28.171875 38.375 25.875 35.71875 
Q 23.578125 33.0625 21.6875 29.390625 
L 14.890625 2.203125 
Q 14.546875 0.828125 13.34375 -0.140625 
Q 12.15625 -1.125 10.6875 -1.125 
Q 9.46875 -1.125 8.59375 -0.34375 
Q 7.71875 0.4375 7.71875 1.703125 
" id="Cmmi10-6e"/>
      <path id="SimHei-20"/>
      <path d="M 7.8125 7.171875 
Q 7.8125 9.03125 8.59375 11.078125 
L 16.703125 32.625 
Q 18.015625 36.28125 18.015625 38.625 
Q 18.015625 41.609375 15.828125 41.609375 
Q 11.859375 41.609375 9.296875 37.53125 
Q 6.734375 33.453125 5.515625 28.421875 
Q 5.328125 27.78125 4.6875 27.78125 
L 3.515625 27.78125 
Q 2.6875 27.78125 2.6875 28.71875 
L 2.6875 29 
Q 4.296875 34.96875 7.609375 39.578125 
Q 10.9375 44.1875 16.015625 44.1875 
Q 19.578125 44.1875 22.046875 41.84375 
Q 24.515625 39.5 24.515625 35.890625 
Q 24.515625 34.03125 23.6875 31.984375 
L 15.578125 10.5 
Q 14.203125 7.171875 14.203125 4.5 
Q 14.203125 1.515625 16.5 1.515625 
Q 20.40625 1.515625 23.015625 5.6875 
Q 25.640625 9.859375 26.703125 14.703125 
Q 26.90625 15.28125 27.484375 15.28125 
L 28.71875 15.28125 
Q 29.109375 15.28125 29.34375 15.015625 
Q 29.59375 14.75 29.59375 14.40625 
Q 29.59375 14.3125 29.5 14.109375 
Q 28.125 8.453125 24.734375 3.65625 
Q 21.34375 -1.125 16.3125 -1.125 
Q 12.796875 -1.125 10.296875 1.296875 
Q 7.8125 3.71875 7.8125 7.171875 
M 19.09375 60.59375 
Q 19.09375 62.703125 20.84375 64.40625 
Q 22.609375 66.109375 24.703125 66.109375 
Q 26.421875 66.109375 27.515625 65.0625 
Q 28.609375 64.015625 28.609375 62.40625 
Q 28.609375 60.15625 26.828125 58.46875 
Q 25.046875 56.78125 22.90625 56.78125 
Q 21.296875 56.78125 20.1875 57.875 
Q 19.09375 58.984375 19.09375 60.59375 
" id="Cmmi10-69"/>
      <path d="M 9.71875 -16.5 
Q 11.578125 -17.921875 14.203125 -17.921875 
Q 17.78125 -17.921875 20.015625 -10.015625 
Q 20.953125 -6.203125 25.09375 15.09375 
L 29.6875 39.59375 
L 21.09375 39.59375 
Q 20.125 39.59375 20.125 40.921875 
Q 20.515625 43.109375 21.390625 43.109375 
L 30.328125 43.109375 
L 31.5 49.609375 
Q 32.078125 52.640625 32.5625 54.8125 
Q 33.0625 56.984375 33.625 58.828125 
Q 34.1875 60.6875 35.296875 62.984375 
Q 37.015625 66.265625 39.921875 68.390625 
Q 42.828125 70.515625 46.1875 70.515625 
Q 48.390625 70.515625 50.46875 69.703125 
Q 52.546875 68.890625 53.859375 67.28125 
Q 55.171875 65.671875 55.171875 63.484375 
Q 55.171875 60.9375 53.484375 59.046875 
Q 51.8125 57.171875 49.421875 57.171875 
Q 47.796875 57.171875 46.65625 58.171875 
Q 45.515625 59.1875 45.515625 60.796875 
Q 45.515625 62.984375 47 64.625 
Q 48.484375 66.265625 50.6875 66.5 
Q 48.828125 67.921875 46.09375 67.921875 
Q 44.578125 67.921875 43.234375 66.5 
Q 41.890625 65.09375 41.5 63.484375 
Q 40.875 60.9375 38.71875 49.703125 
L 37.5 43.109375 
L 47.796875 43.109375 
Q 48.78125 43.109375 48.78125 41.796875 
Q 48.734375 41.546875 48.578125 40.9375 
Q 48.4375 40.328125 48.171875 39.953125 
Q 47.90625 39.59375 47.515625 39.59375 
L 36.8125 39.59375 
L 32.171875 15.1875 
Q 31.296875 9.859375 30.140625 4.359375 
Q 29 -1.125 26.921875 -6.90625 
Q 24.859375 -12.703125 21.625 -16.609375 
Q 18.40625 -20.515625 14.015625 -20.515625 
Q 10.640625 -20.515625 7.984375 -18.578125 
Q 5.328125 -16.65625 5.328125 -13.484375 
Q 5.328125 -10.9375 6.953125 -9.046875 
Q 8.59375 -7.171875 11.078125 -7.171875 
Q 12.75 -7.171875 13.859375 -8.171875 
Q 14.984375 -9.1875 14.984375 -10.796875 
Q 14.984375 -12.9375 13.390625 -14.71875 
Q 11.8125 -16.5 9.71875 -16.5 
" id="Cmmi10-66"/>
      <path d="M 11.71875 11.921875 
Q 11.71875 7.5625 13.9375 4.53125 
Q 16.15625 1.515625 20.3125 1.515625 
Q 26.265625 1.515625 31.75 4.25 
Q 37.25 6.984375 40.71875 11.8125 
Q 41.015625 12.109375 41.5 12.109375 
Q 42 12.109375 42.5 11.546875 
Q 43.015625 10.984375 43.015625 10.5 
Q 43.015625 10.109375 42.828125 9.90625 
Q 39.15625 4.78125 32.953125 1.828125 
Q 26.765625 -1.125 20.125 -1.125 
Q 15.328125 -1.125 11.671875 1.140625 
Q 8.015625 3.421875 6 7.21875 
Q 4 11.03125 4 15.828125 
Q 4 22.5625 7.765625 29.203125 
Q 11.53125 35.84375 17.78125 40.015625 
Q 24.03125 44.1875 30.90625 44.1875 
Q 35.40625 44.1875 38.984375 42.015625 
Q 42.578125 39.84375 42.578125 35.59375 
Q 42.578125 32.859375 40.984375 30.921875 
Q 39.40625 29 36.71875 29 
Q 35.109375 29 34 30 
Q 32.90625 31 32.90625 32.625 
Q 32.90625 34.96875 34.609375 36.625 
Q 36.328125 38.28125 38.625 38.28125 
L 38.8125 38.28125 
Q 37.640625 39.984375 35.421875 40.796875 
Q 33.203125 41.609375 30.8125 41.609375 
Q 24.953125 41.609375 20.546875 36.59375 
Q 16.15625 31.59375 13.9375 24.625 
Q 11.71875 17.671875 11.71875 11.921875 
" id="Cmmi10-63"/>
      <path d="M 6.203125 8.109375 
Q 6.203125 9.578125 6.5 10.890625 
L 13.71875 39.59375 
L 3.21875 39.59375 
Q 2.203125 39.59375 2.203125 40.921875 
Q 2.59375 43.109375 3.515625 43.109375 
L 14.59375 43.109375 
L 18.609375 59.421875 
Q 19 60.75 20.171875 61.671875 
Q 21.34375 62.59375 22.796875 62.59375 
Q 24.078125 62.59375 24.921875 61.828125 
Q 25.78125 61.078125 25.78125 59.8125 
Q 25.78125 59.515625 25.75 59.34375 
Q 25.734375 59.1875 25.6875 58.984375 
L 21.6875 43.109375 
L 31.984375 43.109375 
Q 33.015625 43.109375 33.015625 41.796875 
Q 32.953125 41.546875 32.8125 40.953125 
Q 32.671875 40.375 32.421875 39.984375 
Q 32.171875 39.59375 31.6875 39.59375 
L 20.796875 39.59375 
L 13.625 10.6875 
Q 12.890625 7.859375 12.890625 5.8125 
Q 12.890625 1.515625 15.828125 1.515625 
Q 20.21875 1.515625 23.609375 5.640625 
Q 27 9.765625 28.8125 14.703125 
Q 29.203125 15.28125 29.59375 15.28125 
L 30.8125 15.28125 
Q 31.203125 15.28125 31.4375 15.015625 
Q 31.6875 14.75 31.6875 14.40625 
Q 31.6875 14.203125 31.59375 14.109375 
Q 29.390625 8.0625 25.1875 3.46875 
Q 21 -1.125 15.578125 -1.125 
Q 11.625 -1.125 8.90625 1.453125 
Q 6.203125 4.046875 6.203125 8.109375 
" id="Cmmi10-74"/>
      <path d="M 7.71875 1.703125 
Q 7.71875 2.296875 7.8125 2.59375 
L 15.28125 32.421875 
Q 16.015625 35.203125 16.015625 37.3125 
Q 16.015625 41.609375 13.09375 41.609375 
Q 9.96875 41.609375 8.453125 37.859375 
Q 6.9375 34.125 5.515625 28.421875 
Q 5.515625 28.125 5.21875 27.953125 
Q 4.9375 27.78125 4.6875 27.78125 
L 3.515625 27.78125 
Q 3.171875 27.78125 2.921875 28.140625 
Q 2.6875 28.515625 2.6875 28.8125 
Q 3.765625 33.15625 4.765625 36.171875 
Q 5.765625 39.203125 7.890625 41.6875 
Q 10.015625 44.1875 13.1875 44.1875 
Q 16.65625 44.1875 19.265625 42.1875 
Q 21.875 40.1875 22.515625 36.921875 
Q 25.046875 40.234375 28.296875 42.203125 
Q 31.546875 44.1875 35.40625 44.1875 
Q 38.578125 44.1875 40.984375 42.328125 
Q 43.40625 40.484375 43.40625 37.3125 
Q 43.40625 34.765625 41.8125 32.875 
Q 40.234375 31 37.59375 31 
Q 35.984375 31 34.890625 32 
Q 33.796875 33.015625 33.796875 34.625 
Q 33.796875 36.8125 35.40625 38.546875 
Q 37.015625 40.28125 39.109375 40.28125 
Q 37.5 41.609375 35.203125 41.609375 
Q 30.90625 41.609375 27.734375 38.546875 
Q 24.5625 35.5 22.015625 30.8125 
L 14.890625 2.203125 
Q 14.546875 0.828125 13.34375 -0.140625 
Q 12.15625 -1.125 10.6875 -1.125 
Q 9.46875 -1.125 8.59375 -0.34375 
Q 7.71875 0.4375 7.71875 1.703125 
" id="Cmmi10-72"/>
      <path d="M 17.28125 -1.125 
Q 11.234375 -1.125 7.859375 3.609375 
Q 4.5 8.34375 4.5 14.703125 
Q 4.5 15.625 4.953125 18.328125 
Q 5.421875 21.046875 5.421875 21.6875 
L 15.09375 60.5 
Q 15.484375 62.203125 15.578125 63.1875 
Q 15.578125 64.796875 9.078125 64.796875 
Q 8.109375 64.796875 8.109375 66.109375 
Q 8.15625 66.359375 8.328125 66.984375 
Q 8.5 67.625 8.765625 67.96875 
Q 9.03125 68.3125 9.515625 68.3125 
L 23 69.390625 
Q 24.21875 69.390625 24.21875 68.109375 
L 16.796875 38.625 
Q 22.46875 44.1875 28.21875 44.1875 
Q 32.46875 44.1875 35.515625 41.9375 
Q 38.578125 39.703125 40.09375 36.03125 
Q 41.609375 32.375 41.609375 28.21875 
Q 41.609375 23.390625 39.71875 18.234375 
Q 37.84375 13.09375 34.515625 8.671875 
Q 31.203125 4.25 26.75 1.5625 
Q 22.3125 -1.125 17.28125 -1.125 
M 17.484375 1.515625 
Q 20.90625 1.515625 23.875 4.375 
Q 26.859375 7.234375 28.71875 10.796875 
Q 30.71875 14.796875 32.453125 21.65625 
Q 34.1875 28.515625 34.1875 32.625 
Q 34.1875 36.1875 32.6875 38.890625 
Q 31.203125 41.609375 27.984375 41.609375 
Q 24.359375 41.609375 21.0625 38.9375 
Q 17.78125 36.28125 15.28125 32.625 
L 12.5 21.296875 
Q 10.890625 14.984375 10.796875 11.1875 
Q 10.796875 7.421875 12.421875 4.46875 
Q 14.0625 1.515625 17.484375 1.515625 
" id="Cmmi10-62"/>
      <path d="M 7.71875 1.703125 
Q 7.71875 2.296875 7.8125 2.59375 
L 15.28125 32.421875 
Q 16.015625 35.203125 16.015625 37.3125 
Q 16.015625 41.609375 13.09375 41.609375 
Q 9.96875 41.609375 8.453125 37.859375 
Q 6.9375 34.125 5.515625 28.421875 
Q 5.515625 28.125 5.21875 27.953125 
Q 4.9375 27.78125 4.6875 27.78125 
L 3.515625 27.78125 
Q 3.171875 27.78125 2.921875 28.140625 
Q 2.6875 28.515625 2.6875 28.8125 
Q 3.765625 33.15625 4.765625 36.171875 
Q 5.765625 39.203125 7.890625 41.6875 
Q 10.015625 44.1875 13.1875 44.1875 
Q 16.9375 44.1875 19.8125 41.8125 
Q 22.703125 39.453125 22.703125 35.796875 
Q 25.6875 39.703125 29.6875 41.9375 
Q 33.6875 44.1875 38.1875 44.1875 
Q 42.921875 44.1875 46.359375 41.765625 
Q 49.8125 39.359375 49.8125 34.90625 
Q 52.875 39.265625 57 41.71875 
Q 61.140625 44.1875 66.015625 44.1875 
Q 71.1875 44.1875 74.328125 41.375 
Q 77.484375 38.578125 77.484375 33.40625 
Q 77.484375 29.296875 75.65625 23.484375 
Q 73.828125 17.671875 71.09375 10.5 
Q 69.671875 7.03125 69.671875 4.5 
Q 69.671875 1.515625 72.015625 1.515625 
Q 75.921875 1.515625 78.515625 5.703125 
Q 81.109375 9.90625 82.171875 14.703125 
Q 82.46875 15.28125 83.015625 15.28125 
L 84.1875 15.28125 
Q 84.578125 15.28125 84.84375 15.015625 
Q 85.109375 14.75 85.109375 14.40625 
Q 85.109375 14.3125 85.015625 14.109375 
Q 83.640625 8.453125 80.25 3.65625 
Q 76.859375 -1.125 71.78125 -1.125 
Q 68.265625 -1.125 65.765625 1.296875 
Q 63.28125 3.71875 63.28125 7.171875 
Q 63.28125 8.9375 64.109375 11.078125 
Q 66.9375 18.609375 68.8125 24.515625 
Q 70.703125 30.421875 70.703125 34.90625 
Q 70.703125 37.703125 69.578125 39.65625 
Q 68.453125 41.609375 65.828125 41.609375 
Q 60.359375 41.609375 56.34375 38.25 
Q 52.34375 34.90625 49.421875 29.390625 
Q 49.21875 28.421875 49.125 27.875 
L 42.671875 2.203125 
Q 42.328125 0.828125 41.125 -0.140625 
Q 39.9375 -1.125 38.484375 -1.125 
Q 37.3125 -1.125 36.40625 -0.34375 
Q 35.5 0.4375 35.5 1.703125 
Q 35.5 2.296875 35.59375 2.59375 
L 42 28.078125 
Q 43.015625 32.171875 43.015625 34.90625 
Q 43.015625 37.703125 41.859375 39.65625 
Q 40.71875 41.609375 37.984375 41.609375 
Q 34.328125 41.609375 31.25 39.984375 
Q 28.171875 38.375 25.875 35.71875 
Q 23.578125 33.0625 21.6875 29.390625 
L 14.890625 2.203125 
Q 14.546875 0.828125 13.34375 -0.140625 
Q 12.15625 -1.125 10.6875 -1.125 
Q 9.46875 -1.125 8.59375 -0.34375 
Q 7.71875 0.4375 7.71875 1.703125 
" id="Cmmi10-6d"/>
      <path d="M 20.125 -1.125 
Q 15.328125 -1.125 11.734375 1.359375 
Q 8.15625 3.859375 6.265625 8.078125 
Q 4.390625 12.3125 4.390625 17 
Q 4.390625 24.125 7.984375 30.390625 
Q 11.578125 36.671875 17.71875 40.421875 
Q 23.875 44.1875 30.90625 44.1875 
Q 35.203125 44.1875 38.40625 41.96875 
Q 41.609375 39.75 41.609375 35.59375 
Q 41.609375 29.828125 37.015625 27.015625 
Q 32.421875 24.21875 26.65625 23.5625 
Q 20.90625 22.90625 13.921875 22.90625 
L 13.625 22.90625 
Q 12.015625 16.9375 12.015625 12.703125 
Q 12.015625 8.25 14.0625 4.875 
Q 16.109375 1.515625 20.3125 1.515625 
Q 26.265625 1.515625 31.75 4.25 
Q 37.25 6.984375 40.71875 11.8125 
Q 41.015625 12.109375 41.5 12.109375 
Q 42 12.109375 42.5 11.546875 
Q 43.015625 10.984375 43.015625 10.5 
Q 43.015625 10.109375 42.828125 9.90625 
Q 39.15625 4.78125 32.953125 1.828125 
Q 26.765625 -1.125 20.125 -1.125 
M 14.203125 25.484375 
Q 20.015625 25.484375 24.953125 26.015625 
Q 29.890625 26.5625 33.890625 28.734375 
Q 37.890625 30.90625 37.890625 35.5 
Q 37.890625 37.359375 36.859375 38.75 
Q 35.84375 40.140625 34.203125 40.875 
Q 32.5625 41.609375 30.8125 41.609375 
Q 26.5625 41.609375 23.171875 39.3125 
Q 19.78125 37.015625 17.578125 33.328125 
Q 15.375 29.640625 14.203125 25.484375 
" id="Cmmi10-65"/>
     </defs>
     <g transform="translate(30.1 364.69)rotate(-90.0)scale(0.2 -0.2)">
      <use transform="translate(0.0 0.484375)" xlink:href="#Cmmi10-49"/>
      <use transform="translate(43.896484375 0.484375)" xlink:href="#Cmmi10-6e"/>
      <use transform="translate(103.90625 0.484375)" xlink:href="#Cmmi10-63"/>
      <use transform="translate(147.119140625 0.484375)" xlink:href="#Cmmi10-6f"/>
      <use transform="translate(195.5078125 0.484375)" xlink:href="#Cmmi10-6d"/>
      <use transform="translate(283.30078125 0.484375)" xlink:href="#Cmmi10-65"/>
      <use transform="translate(329.78515625 0.484375)" xlink:href="#SimHei-20"/>
      <use transform="translate(379.78515625 0.484375)" xlink:href="#Cmmi10-62"/>
      <use transform="translate(422.705078125 0.484375)" xlink:href="#Cmmi10-65"/>
      <use transform="translate(469.189453125 0.484375)" xlink:href="#Cmmi10-66"/>
      <use transform="translate(518.06640625 0.484375)" xlink:href="#Cmmi10-6f"/>
      <use transform="translate(566.455078125 0.484375)" xlink:href="#Cmmi10-72"/>
      <use transform="translate(611.572265625 0.484375)" xlink:href="#Cmmi10-65"/>
      <use transform="translate(658.056640625 0.484375)" xlink:href="#SimHei-20"/>
      <use transform="translate(708.056640625 0.484375)" xlink:href="#Cmmi10-69"/>
      <use transform="translate(742.48046875 0.484375)" xlink:href="#Cmmi10-6e"/>
      <use transform="translate(802.490234375 0.484375)" xlink:href="#Cmmi10-63"/>
      <use transform="translate(845.703125 0.484375)" xlink:href="#Cmmi10-6f"/>
      <use transform="translate(894.091796875 0.484375)" xlink:href="#Cmmi10-6d"/>
      <use transform="translate(981.884765625 0.484375)" xlink:href="#Cmmi10-65"/>
      <use transform="translate(1028.369140625 0.484375)" xlink:href="#SimHei-20"/>
      <use transform="translate(1078.369140625 0.484375)" xlink:href="#Cmmi10-74"/>
      <use transform="translate(1114.453125 0.484375)" xlink:href="#Cmmi10-61"/>
      <use transform="translate(1167.236328125 0.484375)" xlink:href="#Cmmi10-78"/>
     </g>
    </g>
   </g>
   <g id="text_22">
    <!-- $Income$ $before$ $income$ $tax$ -->
    <g transform="translate(198.53 44.68)scale(0.2 -0.2)">
     <use transform="translate(0.0 0.484375)" xlink:href="#Cmmi10-49"/>
     <use transform="translate(43.896484375 0.484375)" xlink:href="#Cmmi10-6e"/>
     <use transform="translate(103.90625 0.484375)" xlink:href="#Cmmi10-63"/>
     <use transform="translate(147.119140625 0.484375)" xlink:href="#Cmmi10-6f"/>
     <use transform="translate(195.5078125 0.484375)" xlink:href="#Cmmi10-6d"/>
     <use transform="translate(283.30078125 0.484375)" xlink:href="#Cmmi10-65"/>
     <use transform="translate(329.78515625 0.484375)" xlink:href="#SimHei-20"/>
     <use transform="translate(379.78515625 0.484375)" xlink:href="#Cmmi10-62"/>
     <use transform="translate(422.705078125 0.484375)" xlink:href="#Cmmi10-65"/>
     <use transform="translate(469.189453125 0.484375)" xlink:href="#Cmmi10-66"/>
     <use transform="translate(518.06640625 0.484375)" xlink:href="#Cmmi10-6f"/>
     <use transform="translate(566.455078125 0.484375)" xlink:href="#Cmmi10-72"/>
     <use transform="translate(611.572265625 0.484375)" xlink:href="#Cmmi10-65"/>
     <use transform="translate(658.056640625 0.484375)" xlink:href="#SimHei-20"/>
     <use transform="translate(708.056640625 0.484375)" xlink:href="#Cmmi10-69"/>
     <use transform="translate(742.48046875 0.484375)" xlink:href="#Cmmi10-6e"/>
     <use transform="translate(802.490234375 0.484375)" xlink:href="#Cmmi10-63"/>
     <use transform="translate(845.703125 0.484375)" xlink:href="#Cmmi10-6f"/>
     <use transform="translate(894.091796875 0.484375)" xlink:href="#Cmmi10-6d"/>
     <use transform="translate(981.884765625 0.484375)" xlink:href="#Cmmi10-65"/>
     <use transform="translate(1028.369140625 0.484375)" xlink:href="#SimHei-20"/>
     <use transform="translate(1078.369140625 0.484375)" xlink:href="#Cmmi10-74"/>
     <use transform="translate(1114.453125 0.484375)" xlink:href="#Cmmi10-61"/>
     <use transform="translate(1167.236328125 0.484375)" xlink:href="#Cmmi10-78"/>
    </g>
   </g>
   <g id="legend_1">
    <g id="patch_7">
     <path d="M 452.96 430.7 
L 557.36 430.7 
Q 559.76 430.7 559.76 428.3 
L 559.76 378.453125 
Q 559.76 376.053125 557.36 376.053125 
L 452.96 376.053125 
Q 450.56 376.053125 450.56 378.453125 
L 450.56 428.3 
Q 450.56 430.7 452.96 430.7 
z
" style="fill:#4c4c4c;opacity:0.5;stroke:#4c4c4c;stroke-linejoin:miter;"/>
    </g>
    <g id="patch_8">
     <path d="M 450.96 428.7 
L 555.36 428.7 
Q 557.76 428.7 557.76 426.3 
L 557.76 376.453125 
Q 557.76 374.053125 555.36 374.053125 
L 450.96 374.053125 
Q 448.56 374.053125 448.56 376.453125 
L 448.56 426.3 
Q 448.56 428.7 450.96 428.7 
z
" style="fill:#ffffff;opacity:0.8;stroke:#000000;stroke-linejoin:miter;"/>
    </g>
    <g id="line2d_54">
     <path d="M 456.96 384.16875 
L 473.76 384.16875 
" style="fill:none;opacity:0.8;stroke:#ff0000;stroke-dasharray:6.000000,6.000000;stroke-dashoffset:0.0;stroke-width:3.0;"/>
    </g>
    <g id="line2d_55">
     <g>
      <use style="fill:#ff0000;opacity:0.8;stroke:#ff0000;stroke-width:2.0;" x="456.96" xlink:href="#med69421b53" y="384.16875"/>
      <use style="fill:#ff0000;opacity:0.8;stroke:#ff0000;stroke-width:2.0;" x="473.76" xlink:href="#med69421b53" y="384.16875"/>
     </g>
    </g>
    <g id="text_23">
     <!-- 1734  -->
     <defs>
      <path d="M 66.796875 47.265625 
L 66.796875 53.90625 
Q 55.46875 53.90625 50 53.515625 
L 50 59.765625 
Q 55.078125 59.375 66.796875 59.375 
Q 66.796875 64.84375 66.40625 68.359375 
L 73.046875 68.359375 
Q 72.65625 63.671875 72.65625 59.375 
Q 84.765625 59.375 89.84375 59.765625 
L 89.84375 53.515625 
Q 83.984375 53.90625 72.65625 53.90625 
L 72.65625 47.265625 
L 89.84375 47.265625 
Q 89.453125 44.140625 89.453125 32.8125 
Q 89.453125 21.875 89.84375 18.75 
L 72.65625 18.75 
L 72.65625 12.109375 
Q 91.796875 12.109375 96.09375 12.5 
L 96.09375 6.640625 
Q 91.796875 7.03125 72.65625 7.03125 
Q 72.65625 -1.5625 73.046875 -10.15625 
L 66.40625 -10.15625 
Q 66.796875 -2.34375 66.796875 7.03125 
Q 46.875 7.03125 43.75 6.640625 
L 43.75 12.5 
Q 46.875 12.109375 66.796875 12.109375 
L 66.796875 18.75 
L 50 18.75 
Q 50.390625 21.875 50.390625 32.03125 
Q 50.390625 42.578125 50 47.265625 
z
M 4.6875 47.65625 
Q 9.375 47.265625 19.921875 47.265625 
L 19.921875 68.359375 
Q 19.921875 73.828125 19.53125 81.640625 
L 26.5625 81.640625 
Q 26.171875 75.390625 26.171875 68.359375 
L 26.171875 47.265625 
Q 37.5 47.265625 41.796875 47.65625 
L 41.796875 41.40625 
Q 37.5 41.796875 32.8125 41.796875 
L 32.8125 12.890625 
Q 35.546875 16.015625 38.671875 19.921875 
Q 39.84375 16.796875 42.1875 14.0625 
Q 38.28125 10.9375 35.15625 7.21875 
Q 32.03125 3.515625 28.90625 0 
L 23.828125 5.078125 
Q 26.5625 8.203125 26.953125 12.109375 
L 26.953125 41.796875 
L 20.703125 41.796875 
Q 20.3125 22.65625 18.546875 15.234375 
Q 16.796875 7.8125 14.640625 3.3125 
Q 12.5 -1.171875 8.984375 -6.640625 
Q 6.25 -3.90625 3.125 -1.5625 
Q 7.8125 3.515625 9.765625 7.8125 
Q 11.71875 12.109375 13.078125 17.765625 
Q 14.453125 23.4375 14.84375 41.796875 
Q 10.15625 41.796875 4.6875 41.40625 
z
M 96.484375 76.953125 
Q 96.09375 68.75 96.484375 61.71875 
L 89.84375 61.71875 
L 89.84375 71.875 
L 51.171875 71.875 
L 51.171875 61.71875 
L 44.921875 61.71875 
Q 45.3125 68.75 44.921875 76.953125 
L 96.484375 76.953125 
z
M 41.015625 71.09375 
Q 36.71875 58.203125 34.375 52.34375 
Q 31.25 53.90625 28.90625 55.46875 
Q 30.859375 59.765625 34.375 73.4375 
Q 37.109375 72.265625 41.015625 71.09375 
z
M 12.5 72.65625 
Q 15.625 60.15625 16.796875 53.90625 
Q 14.0625 53.515625 10.15625 52.34375 
Q 9.765625 55.859375 6.25 70.3125 
Q 9.375 71.875 12.5 72.65625 
z
M 83.59375 24.21875 
L 83.59375 30.46875 
L 72.65625 30.46875 
L 72.65625 24.21875 
z
M 66.796875 24.21875 
L 66.796875 30.46875 
L 56.25 30.46875 
L 56.25 24.21875 
z
M 83.59375 35.9375 
L 83.59375 41.796875 
L 72.65625 41.796875 
L 72.65625 35.9375 
z
M 66.796875 35.9375 
L 66.796875 41.796875 
L 56.25 41.796875 
L 56.25 35.9375 
z
" id="SimHei-8f1d"/>
      <path d="M 82.03125 30.859375 
Q 81.25 25.390625 81.25 20.3125 
L 81.25 6.640625 
Q 81.25 0.390625 81.640625 -7.03125 
L 73.828125 -7.03125 
L 73.828125 0.390625 
L 28.125 0.390625 
L 28.125 -7.03125 
L 19.921875 -7.03125 
Q 20.3125 -1.171875 20.3125 4.296875 
L 20.3125 19.921875 
Q 20.3125 25.78125 19.921875 30.859375 
L 82.03125 30.859375 
z
M 45.703125 67.578125 
Q 45.703125 74.609375 45.3125 80.078125 
L 54.296875 80.078125 
Q 53.515625 75.390625 53.515625 67.578125 
L 78.515625 67.578125 
Q 85.15625 67.578125 92.96875 67.96875 
L 92.96875 60.546875 
Q 85.546875 60.9375 78.515625 60.9375 
L 61.328125 60.9375 
Q 62.890625 58.203125 65.625 55.078125 
Q 68.359375 51.953125 73.046875 48.234375 
Q 77.734375 44.53125 83 42.1875 
Q 88.28125 39.84375 95.703125 38.28125 
Q 92.1875 33.984375 90.234375 30.859375 
Q 81.640625 34.375 76.171875 37.5 
Q 70.703125 40.625 66.40625 44.53125 
Q 62.109375 48.4375 59.171875 52.140625 
Q 56.25 55.859375 53.515625 60.9375 
L 53.515625 50.390625 
Q 53.515625 44.140625 54.296875 34.375 
L 45.3125 34.375 
Q 45.703125 44.140625 45.703125 50.390625 
L 45.703125 59.765625 
Q 42.96875 55.46875 39.453125 51.171875 
Q 35.9375 46.875 31.4375 42.96875 
Q 26.953125 39.0625 22.0625 35.34375 
Q 17.1875 31.640625 10.546875 27.734375 
Q 8.984375 30.46875 7.8125 32.03125 
Q 6.640625 33.59375 5.078125 34.765625 
Q 17.1875 40.625 23.046875 45.109375 
Q 28.90625 49.609375 32.21875 53.3125 
Q 35.546875 57.03125 37.890625 60.9375 
L 23.046875 60.9375 
Q 16.40625 60.9375 7.421875 60.546875 
L 7.421875 67.96875 
Q 16.40625 67.578125 22.65625 67.578125 
z
M 73.828125 7.03125 
L 73.828125 24.21875 
L 27.734375 24.21875 
L 27.734375 7.03125 
z
" id="SimHei-674f"/>
     </defs>
     <g transform="translate(486.96 388.36875)scale(0.12 -0.12)">
      <use xlink:href="#SimHei-31"/>
      <use x="50.0" xlink:href="#SimHei-37"/>
      <use x="100.0" xlink:href="#SimHei-33"/>
      <use x="150.0" xlink:href="#SimHei-34"/>
      <use x="200.0" xlink:href="#SimHei-20"/>
      <use x="250.0" xlink:href="#SimHei-674f"/>
      <use x="350.0" xlink:href="#SimHei-8f1d"/>
     </g>
    </g>
    <g id="line2d_56">
     <path d="M 456.96 401.04375 
L 473.76 401.04375 
" style="fill:none;opacity:0.8;stroke:#008000;stroke-dasharray:6.000000,6.000000;stroke-dashoffset:0.0;stroke-width:3.0;"/>
    </g>
    <g id="line2d_57">
     <g>
      <use style="fill:#008000;opacity:0.8;stroke:#008000;stroke-width:2.0;" x="456.96" xlink:href="#m119d064379" y="401.04375"/>
      <use style="fill:#008000;opacity:0.8;stroke:#008000;stroke-width:2.0;" x="473.76" xlink:href="#m119d064379" y="401.04375"/>
     </g>
    </g>
    <g id="text_24">
     <!-- 1762  -->
     <defs>
      <path d="M 29.296875 72.65625 
Q 26.953125 69.921875 25.390625 65.8125 
Q 23.828125 61.71875 22.265625 57.8125 
L 45.703125 57.8125 
L 45.703125 71.484375 
Q 45.703125 76.5625 45.3125 81.25 
L 54.296875 81.25 
Q 53.90625 76.953125 53.90625 71.484375 
L 53.90625 57.8125 
L 71.09375 57.8125 
Q 77.34375 57.8125 85.15625 58.203125 
L 85.15625 50.390625 
Q 77.734375 50.78125 71.09375 50.78125 
L 53.90625 50.78125 
L 53.90625 33.203125 
L 66.015625 33.203125 
Q 71.484375 33.203125 79.296875 33.59375 
L 79.296875 25.78125 
Q 71.875 26.171875 66.015625 26.171875 
L 53.90625 26.171875 
L 53.90625 2.734375 
L 77.34375 2.734375 
Q 83.59375 2.734375 91.796875 3.125 
L 91.796875 -4.296875 
Q 83.984375 -3.90625 77.34375 -3.90625 
L 21.09375 -3.90625 
Q 14.453125 -3.90625 7.421875 -4.296875 
L 7.421875 3.125 
Q 14.84375 2.734375 21.09375 2.734375 
L 45.703125 2.734375 
L 45.703125 26.171875 
L 31.25 26.171875 
Q 25.78125 26.171875 19.921875 25.78125 
L 19.921875 33.59375 
Q 25.78125 33.203125 31.25 33.203125 
L 45.703125 33.203125 
L 45.703125 50.78125 
L 19.53125 50.78125 
Q 16.015625 42.578125 12.5 36.71875 
Q 8.203125 38.671875 3.125 39.453125 
Q 7.421875 44.140625 12.296875 54.484375 
Q 17.1875 64.84375 19.140625 76.5625 
L 29.296875 72.65625 
z
" id="SimHei-751f"/>
      <path d="M 61.328125 78.515625 
Q 60.9375 76.5625 60.9375 68.75 
L 60.9375 41.015625 
Q 68.359375 47.265625 74.609375 53.90625 
Q 80.859375 60.546875 84.375 67.1875 
Q 87.5 64.0625 92.1875 61.328125 
Q 89.0625 57.8125 81.640625 50.1875 
Q 74.21875 42.578125 70.109375 39.25 
Q 66.015625 35.9375 60.9375 31.640625 
L 60.9375 7.03125 
Q 60.9375 0.78125 66.015625 0.78125 
L 81.25 0.78125 
Q 84.375 1.171875 85.34375 4.09375 
Q 86.328125 7.03125 87.109375 13.28125 
Q 90.625 10.15625 96.09375 9.375 
Q 93.75 -1.5625 91.015625 -3.90625 
Q 88.28125 -6.25 83.59375 -6.25 
L 61.71875 -6.25 
Q 53.515625 -6.25 53.125 3.125 
L 53.125 26.171875 
Q 50.390625 23.828125 46.28125 21.09375 
Q 42.1875 18.359375 37.109375 15.234375 
Q 34.765625 19.140625 31.640625 21.875 
Q 36.71875 24.21875 42.765625 27.921875 
Q 48.828125 31.640625 53.125 35.15625 
L 53.125 70.3125 
Q 53.125 75 52.734375 78.515625 
L 61.328125 78.515625 
z
M 37.5 75.78125 
Q 33.984375 71.09375 32.421875 67.765625 
Q 30.859375 64.453125 28.515625 58.984375 
L 28.515625 10.546875 
Q 28.515625 -1.171875 28.90625 -8.59375 
L 20.703125 -8.59375 
Q 21.09375 -1.953125 21.09375 10.15625 
L 21.09375 47.65625 
Q 17.578125 42.578125 15.03125 39.453125 
Q 12.5 36.328125 10.546875 33.984375 
Q 7.8125 37.109375 4.296875 39.453125 
Q 9.765625 44.53125 13.671875 50.1875 
Q 17.578125 55.859375 20.5 61.125 
Q 23.4375 66.40625 25.390625 71.484375 
Q 27.34375 76.5625 28.515625 79.6875 
Q 30.859375 77.734375 37.5 75.78125 
z
" id="SimHei-5316"/>
      <path d="M 54.296875 81.25 
Q 53.90625 70.3125 53.90625 60.546875 
L 87.890625 60.546875 
Q 87.5 52.734375 87.5 39.0625 
Q 87.5 25.78125 87.890625 19.140625 
L 79.296875 19.140625 
L 79.296875 25 
L 53.90625 25 
L 53.90625 8.203125 
Q 53.90625 3.515625 54.296875 -9.375 
L 44.921875 -9.375 
Q 45.703125 -2.34375 45.703125 7.03125 
L 45.703125 25 
L 20.3125 25 
L 20.3125 19.140625 
L 11.71875 19.140625 
Q 12.109375 25 12.109375 39.0625 
Q 12.109375 53.515625 11.71875 60.546875 
L 45.703125 60.546875 
Q 45.703125 71.09375 45.3125 81.25 
z
M 79.296875 31.25 
L 79.296875 54.296875 
L 53.90625 54.296875 
L 53.90625 31.25 
z
M 45.703125 31.25 
L 45.703125 54.296875 
L 20.3125 54.296875 
L 20.3125 31.25 
z
" id="SimHei-4e2d"/>
     </defs>
     <g transform="translate(486.96 405.24375)scale(0.12 -0.12)">
      <use xlink:href="#SimHei-31"/>
      <use x="50.0" xlink:href="#SimHei-37"/>
      <use x="100.0" xlink:href="#SimHei-36"/>
      <use x="150.0" xlink:href="#SimHei-32"/>
      <use x="200.0" xlink:href="#SimHei-20"/>
      <use x="250.0" xlink:href="#SimHei-4e2d"/>
      <use x="350.0" xlink:href="#SimHei-5316"/>
      <use x="450.0" xlink:href="#SimHei-751f"/>
     </g>
    </g>
    <g id="line2d_58">
     <path d="M 456.96 418.2 
L 473.76 418.2 
" style="fill:none;opacity:0.8;stroke:#0000ff;stroke-dasharray:6.000000,6.000000;stroke-dashoffset:0.0;stroke-width:3.0;"/>
    </g>
    <g id="line2d_59">
     <g>
      <use style="fill:#0000ff;opacity:0.8;stroke:#0000ff;stroke-width:2.0;" x="456.96" xlink:href="#mf15b444009" y="418.2"/>
      <use style="fill:#0000ff;opacity:0.8;stroke:#0000ff;stroke-width:2.0;" x="473.76" xlink:href="#mf15b444009" y="418.2"/>
     </g>
    </g>
    <g id="text_25">
     <!-- 4108  -->
     <defs>
      <path d="M 63.28125 49.21875 
L 63.28125 63.28125 
L 57.421875 63.28125 
Q 51.171875 63.28125 46.484375 62.890625 
L 46.484375 69.921875 
Q 50.78125 69.53125 57.421875 69.53125 
L 63.28125 69.53125 
Q 63.28125 77.34375 62.5 81.25 
L 70.703125 81.25 
Q 70.3125 77.34375 70.3125 69.53125 
L 79.296875 69.53125 
Q 85.15625 69.53125 90.625 69.921875 
L 90.625 62.890625 
Q 86.71875 63.28125 79.296875 63.28125 
L 70.3125 63.28125 
L 70.3125 49.21875 
L 85.15625 49.21875 
Q 91.015625 49.21875 96.09375 49.609375 
L 96.09375 42.578125 
Q 91.40625 42.96875 85.9375 42.96875 
L 82.421875 42.96875 
L 82.421875 31.25 
Q 91.015625 31.25 95.3125 31.640625 
L 95.3125 24.21875 
Q 90.625 24.609375 82.421875 24.609375 
L 82.421875 -1.171875 
Q 82.03125 -5.859375 78.90625 -7.609375 
Q 75.78125 -9.375 66.796875 -10.546875 
Q 66.015625 -5.859375 63.671875 -1.5625 
Q 70.703125 -1.953125 73.046875 -1.5625 
Q 75.390625 -1.171875 75.390625 2.34375 
L 75.390625 24.609375 
L 56.25 24.609375 
Q 49.609375 24.609375 44.53125 24.21875 
L 44.53125 31.640625 
Q 48.828125 31.25 56.25 31.25 
L 75.390625 31.25 
L 75.390625 42.96875 
L 55.859375 42.96875 
Q 48.828125 42.96875 43.359375 42.578125 
L 43.359375 49.609375 
Q 48.828125 49.21875 55.46875 49.21875 
z
M 17.96875 66.796875 
Q 16.40625 64.453125 14.84375 56.25 
L 23.4375 56.25 
L 23.4375 69.140625 
Q 23.4375 75 23.046875 81.25 
L 31.25 81.25 
Q 30.46875 75.390625 30.46875 69.140625 
L 30.46875 56.25 
Q 35.9375 56.25 40.625 56.640625 
L 40.625 49.609375 
Q 36.328125 50 30.46875 50 
L 30.46875 32.421875 
Q 35.546875 34.375 40.234375 36.328125 
Q 40.625 33.203125 41.40625 29.6875 
Q 37.109375 28.125 30.46875 25.390625 
L 30.46875 3.515625 
Q 30.46875 -2.734375 30.859375 -10.15625 
L 23.046875 -10.15625 
Q 23.4375 -3.125 23.4375 3.515625 
L 23.4375 22.65625 
Q 13.28125 18.75 8.59375 16.015625 
Q 7.03125 19.921875 4.296875 24.21875 
Q 9.375 24.609375 23.4375 30.078125 
L 23.4375 50 
L 13.28125 50 
Q 11.71875 43.359375 10.546875 38.28125 
Q 6.640625 39.84375 3.515625 40.625 
Q 5.46875 46.09375 7.21875 54.484375 
Q 8.984375 62.890625 9.375 68.75 
Q 14.0625 67.578125 17.96875 66.796875 
z
M 56.25 18.75 
Q 59.375 11.71875 62.109375 5.078125 
Q 58.59375 4.296875 54.6875 2.34375 
Q 51.953125 10.546875 48.828125 16.015625 
Q 52.734375 17.1875 56.25 18.75 
z
" id="SimHei-7279"/>
      <path d="M 66.796875 25 
L 65.625 25 
L 69.53125 21.875 
Q 67.578125 20.3125 66.015625 18.75 
Q 68.75 12.5 74.609375 8.203125 
Q 78.125 12.109375 82.03125 17.578125 
Q 83.59375 15.625 87.109375 12.890625 
Q 83.203125 9.765625 78.515625 5.078125 
Q 81.640625 2.734375 86.515625 0.96875 
Q 91.40625 -0.78125 96.09375 -1.5625 
Q 92.1875 -4.296875 91.015625 -7.421875 
Q 80.859375 -4.6875 73.828125 1.171875 
Q 66.796875 7.03125 61.71875 15.625 
Q 58.59375 12.5 54.6875 8.984375 
L 54.6875 -2.734375 
Q 58.59375 -1.5625 68.75 2.734375 
Q 68.359375 -0.390625 69.921875 -3.515625 
Q 63.28125 -5.859375 49.21875 -10.9375 
L 46.875 -5.078125 
Q 48.4375 -3.125 48.828125 -0.390625 
L 48.828125 5.859375 
Q 36.328125 0 30.078125 -1.953125 
Q 28.515625 1.953125 25.78125 4.6875 
Q 31.640625 5.859375 37.296875 7.609375 
Q 42.96875 9.375 50 13.859375 
Q 57.03125 18.359375 60.546875 24.21875 
L 60.546875 41.015625 
L 37.890625 41.015625 
Q 38.28125 46.484375 38.28125 50.390625 
Q 38.28125 54.296875 37.890625 59.765625 
L 90.234375 59.765625 
Q 89.84375 54.296875 89.84375 50 
Q 89.84375 45.703125 90.234375 41.015625 
L 66.796875 41.015625 
z
M 22.65625 80.078125 
Q 22.265625 74.21875 22.265625 66.796875 
L 22.265625 9.765625 
Q 22.265625 -0.390625 22.65625 -9.765625 
L 16.40625 -9.765625 
Q 16.796875 -0.390625 16.796875 9.375 
L 16.796875 67.1875 
Q 16.796875 74.21875 16.40625 80.078125 
L 22.65625 80.078125 
z
M 32.03125 70.703125 
Q 36.328125 70.3125 41.015625 70.3125 
L 83.984375 70.3125 
Q 89.84375 70.3125 94.53125 70.703125 
L 94.53125 64.84375 
Q 89.84375 65.234375 83.984375 65.234375 
L 41.015625 65.234375 
Q 35.9375 65.234375 32.03125 64.84375 
z
M 3.125 35.546875 
Q 5.46875 41.40625 7.8125 58.984375 
Q 10.546875 58.203125 14.453125 57.8125 
Q 11.71875 42.1875 8.59375 32.8125 
L 3.125 35.546875 
z
M 75.78125 28.125 
Q 90.234375 23.828125 94.921875 21.875 
Q 92.96875 19.140625 92.578125 16.40625 
Q 86.71875 18.75 74.21875 23.046875 
Q 75 25.390625 75.78125 28.125 
z
M 33.203125 19.921875 
Q 41.015625 22.265625 53.125 27.34375 
Q 53.515625 25 54.296875 22.265625 
Q 41.015625 16.796875 36.328125 14.0625 
Q 35.15625 17.578125 33.203125 19.921875 
z
M 29.296875 59.765625 
Q 30.46875 54.296875 34.375 41.40625 
Q 31.25 41.015625 28.515625 39.84375 
Q 27.34375 46.875 23.828125 57.8125 
Q 26.5625 58.984375 29.296875 59.765625 
z
M 94.53125 33.984375 
Q 85.9375 32.03125 76.953125 29.296875 
Q 76.171875 32.8125 75.390625 34.765625 
Q 85.546875 36.71875 92.1875 39.84375 
Q 92.96875 37.5 94.53125 33.984375 
z
M 50.390625 28.90625 
Q 46.484375 30.46875 34.765625 34.765625 
Q 35.546875 37.5 36.71875 39.84375 
Q 49.609375 35.15625 53.125 33.59375 
Q 51.5625 31.25 50.390625 28.90625 
z
M 74.21875 55.078125 
L 74.21875 45.703125 
L 83.984375 45.703125 
L 83.984375 55.078125 
z
M 58.984375 55.078125 
L 58.984375 45.703125 
L 68.75 45.703125 
L 68.75 55.078125 
z
M 44.140625 55.078125 
L 44.140625 45.703125 
L 53.515625 45.703125 
L 53.515625 55.078125 
z
M 60.546875 71.09375 
Q 58.203125 76.171875 55.859375 79.296875 
Q 58.59375 80.46875 61.71875 82.03125 
Q 64.84375 76.953125 66.796875 73.828125 
Q 63.28125 72.65625 60.546875 71.09375 
z
" id="SimHei-61f7"/>
     </defs>
     <g transform="translate(486.96 422.4)scale(0.12 -0.12)">
      <use xlink:href="#SimHei-34"/>
      <use x="50.0" xlink:href="#SimHei-31"/>
      <use x="100.0" xlink:href="#SimHei-30"/>
      <use x="150.0" xlink:href="#SimHei-38"/>
      <use x="200.0" xlink:href="#SimHei-20"/>
      <use x="250.0" xlink:href="#SimHei-61f7"/>
      <use x="350.0" xlink:href="#SimHei-7279"/>
     </g>
    </g>
   </g>
  </g>
 </g>
 <defs>
  <clipPath id="p24fe25ee66">
   <rect height="385.02" width="485.46" x="78.3" y="49.68"/>
  </clipPath>
 </defs>
</svg>
